<svg width="263" height="107" viewBox="0 0 263 107" fill="none" xmlns="http://www.w3.org/2000/svg">
<g clip-path="url(#clip0_93_14)">
<path d="M10.7143 31.7857H16.0714V37.1429H10.7143V31.7857ZM16.0714 31.7857H21.4286V37.1429H16.0714V31.7857ZM16.0714 26.4286H21.4286V31.7857H16.0714V26.4286ZM21.4286 31.7857H26.7857V37.1429H21.4286V31.7857ZM21.4286 37.1429H26.7857V42.5H21.4286V37.1429ZM26.7857 37.1429H32.1429V42.5H26.7857V37.1429ZM16.0714 37.1429H21.4286V42.5H16.0714V37.1429ZM10.7143 37.1429H16.0714V42.5H10.7143V37.1429ZM5.35714 37.1429H10.7143V42.5H5.35714V37.1429ZM5.35714 42.5H10.7143V47.8571H5.35714V42.5ZM0 42.5H5.35714V47.8571H0V42.5ZM10.7143 42.5H16.0714V47.8571H10.7143V42.5ZM5.35714 47.8571H10.7143V53.2143H5.35714V47.8571ZM5.35714 53.2143H10.7143V58.5714H5.35714V53.2143ZM5.35714 58.5714H10.7143V63.9286H5.35714V58.5714ZM10.7143 58.5714H16.0714V63.9286H10.7143V58.5714ZM16.0714 58.5714H21.4286V63.9286H16.0714V58.5714ZM21.4286 58.5714H26.7857V63.9286H21.4286V58.5714ZM26.7857 58.5714H32.1429V63.9286H26.7857V58.5714ZM32.1429 58.5714H37.5V63.9286H32.1429V58.5714ZM32.1429 53.2143H37.5V58.5714H32.1429V53.2143ZM32.1429 47.8571H37.5V53.2143H32.1429V47.8571ZM32.1429 42.5H37.5V47.8571H32.1429V42.5ZM26.7857 42.5H32.1429V47.8571H26.7857V42.5ZM21.4286 42.5H26.7857V47.8571H21.4286V42.5ZM26.7857 47.8571H32.1429V53.2143H26.7857V47.8571ZM26.7857 53.2143H32.1429V58.5714H26.7857V53.2143ZM26.7857 63.9286H32.1429V69.2857H26.7857V63.9286ZM32.1429 63.9286H37.5V69.2857H32.1429V63.9286ZM32.1429 69.2857H37.5V74.6429H32.1429V69.2857ZM32.1429 74.6429H37.5V80H32.1429V74.6429ZM26.7857 74.6429H32.1429V80H26.7857V74.6429ZM26.7857 69.2857H32.1429V74.6429H26.7857V69.2857ZM21.4286 63.9286H26.7857V69.2857H21.4286V63.9286ZM16.0714 63.9286H21.4286V69.2857H16.0714V63.9286ZM10.7143 63.9286H16.0714V69.2857H10.7143V63.9286ZM5.35714 63.9286H10.7143V69.2857H5.35714V63.9286ZM5.35714 69.2857H10.7143V74.6429H5.35714V69.2857ZM5.35714 74.6429H10.7143V80H5.35714V74.6429ZM0 74.6429H5.35714V80H0V74.6429ZM0 69.2857H5.35714V74.6429H0V69.2857ZM0 63.9286H5.35714V69.2857H0V63.9286ZM0 58.5714H5.35714V63.9286H0V58.5714ZM0 53.2143H5.35714V58.5714H0V53.2143ZM0 47.8571H5.35714V53.2143H0V47.8571ZM48.2282 26.4286H53.5854V31.7857H48.2282V26.4286ZM48.2282 31.7857H53.5854V37.1429H48.2282V31.7857ZM42.8711 31.7857H48.2282V37.1429H42.8711V31.7857ZM42.8711 26.4286H48.2282V31.7857H42.8711V26.4286ZM48.2282 37.1429H53.5854V42.5H48.2282V37.1429ZM42.8711 42.5H48.2282V47.8571H42.8711V42.5ZM58.9844 42.5H64.3415V47.8571H58.9844V42.5ZM64.3415 47.8571H69.6987V53.2143H64.3415V47.8571ZM58.9844 47.8571H64.3415V53.2143H58.9844V47.8571ZM58.9844 53.2143H64.3415V58.5714H58.9844V53.2143ZM64.3415 53.2143H69.6987V58.5714H64.3415V53.2143ZM64.3415 58.5714H69.6987V63.9286H64.3415V58.5714ZM69.6987 58.5714H75.0558V63.9286H69.6987V58.5714ZM75.0558 58.5714H80.4129V63.9286H75.0558V58.5714ZM80.4129 53.2143H85.7701V58.5714H80.4129V53.2143ZM75.0558 53.2143H80.4129V58.5714H75.0558V53.2143ZM69.6987 53.2143H75.0558V58.5714H69.6987V53.2143ZM80.4129 58.5714H85.7701V63.9286H80.4129V58.5714ZM85.7701 58.5714H91.1272V63.9286H85.7701V58.5714ZM85.7701 63.9286H91.1272V69.2857H85.7701V63.9286ZM80.4129 63.9286H85.7701V69.2857H80.4129V63.9286ZM80.4129 69.2857H85.7701V74.6429H80.4129V69.2857ZM85.7701 69.2857H91.1272V74.6429H85.7701V69.2857ZM80.4129 74.6429H85.7701V80H80.4129V74.6429ZM75.0558 69.2857H80.4129V74.6429H75.0558V69.2857ZM69.6987 69.2857H75.0558V74.6429H69.6987V69.2857ZM64.3415 69.2857H69.6987V74.6429H64.3415V69.2857ZM58.9844 69.2857H64.3415V74.6429H58.9844V69.2857ZM64.3415 74.6429H69.6987V80H64.3415V74.6429ZM69.6987 74.6429H75.0558V80H69.6987V74.6429ZM75.0558 74.6429H80.4129V80H75.0558V74.6429ZM85.7701 42.5H91.1272V47.8571H85.7701V42.5ZM80.4129 42.5H85.7701V47.8571H80.4129V42.5ZM80.4129 37.1429H85.7701V42.5H80.4129V37.1429ZM75.0558 37.1429H80.4129V42.5H75.0558V37.1429ZM69.6987 37.1429H75.0558V42.5H69.6987V37.1429ZM64.3415 37.1429H69.6987V42.5H64.3415V37.1429ZM64.3415 42.5H69.6987V47.8571H64.3415V42.5ZM69.6987 42.5H75.0558V47.8571H69.6987V42.5ZM75.0558 42.5H80.4129V47.8571H75.0558V42.5ZM117.871 37.1429H123.228V42.5H117.871V37.1429ZM117.871 42.5H123.228V47.8571H117.871V42.5ZM117.871 47.8571H123.228V53.2143H117.871V47.8571ZM117.871 53.2143H123.228V58.5714H117.871V53.2143ZM117.871 58.5714H123.228V63.9286H117.871V58.5714ZM117.871 63.9286H123.228V69.2857H117.871V63.9286ZM123.228 63.9286H128.585V69.2857H123.228V63.9286ZM123.228 69.2857H128.585V74.6429H123.228V69.2857ZM128.585 69.2857H133.943V74.6429H128.585V69.2857ZM128.585 74.6429H133.943V80H128.585V74.6429ZM133.943 69.2857H139.3V74.6429H133.943V69.2857ZM139.3 63.9286H144.657V69.2857H139.3V63.9286ZM144.657 47.8571H150.014V53.2143H144.657V47.8571ZM139.3 37.1429H144.657V42.5H139.3V37.1429ZM144.657 37.1429H150.014V42.5H144.657V37.1429ZM144.657 42.5H150.014V47.8571H144.657V42.5ZM144.657 53.2143H150.014V58.5714H144.657V53.2143ZM144.657 58.5714H150.014V63.9286H144.657V58.5714ZM139.3 58.5714H144.657V63.9286H139.3V58.5714ZM139.3 53.2143H144.657V58.5714H139.3V53.2143ZM139.3 47.8571H144.657V53.2143H139.3V47.8571ZM139.3 42.5H144.657V47.8571H139.3V42.5ZM144.657 63.9286H150.014V69.2857H144.657V63.9286ZM155.371 69.2857H160.728V74.6429H155.371V69.2857ZM155.371 74.6429H160.728V80H155.371V74.6429ZM160.728 69.2857H166.085V74.6429H160.728V69.2857ZM160.728 63.9286H166.085V69.2857H160.728V63.9286ZM166.085 63.9286H171.443V69.2857H166.085V63.9286ZM166.085 58.5714H171.443V63.9286H166.085V58.5714ZM166.085 53.2143H171.443V58.5714H166.085V53.2143ZM166.085 47.8571H171.443V53.2143H166.085V47.8571ZM166.085 42.5H171.443V47.8571H166.085V42.5ZM166.085 37.1429H171.443V42.5H166.085V37.1429ZM123.228 42.5H128.585V47.8571H123.228V42.5ZM123.228 47.8571H128.585V53.2143H123.228V47.8571ZM123.228 53.2143H128.585V58.5714H123.228V53.2143ZM123.228 58.5714H128.585V63.9286H123.228V58.5714ZM123.228 37.1429H128.585V42.5H123.228V37.1429ZM160.728 37.1429H166.085V42.5H160.728V37.1429ZM160.728 42.5H166.085V47.8571H160.728V42.5ZM160.728 47.8571H166.085V53.2143H160.728V47.8571ZM160.728 53.2143H166.085V58.5714H160.728V53.2143ZM160.728 58.5714H166.085V63.9286H160.728V58.5714ZM133.943 74.6429H139.3V80H133.943V74.6429ZM139.3 69.2857H144.657V74.6429H139.3V69.2857ZM144.657 69.2857H150.014V74.6429H144.657V69.2857ZM150.014 69.2857H155.371V74.6429H150.014V69.2857ZM150.014 74.6429H155.371V80H150.014V74.6429ZM128.585 63.9286H133.943V69.2857H128.585V63.9286ZM155.371 63.9286H160.728V69.2857H155.371V63.9286ZM187.472 37.1429H192.829V42.5H187.472V37.1429ZM182.115 37.1429H187.472V42.5H182.115V37.1429ZM182.115 42.5H187.472V47.8571H182.115V42.5ZM187.472 42.5H192.829V47.8571H187.472V42.5ZM192.829 37.1429H198.186V42.5H192.829V37.1429ZM198.186 37.1429H203.544V42.5H198.186V37.1429ZM203.544 37.1429H208.901V42.5H203.544V37.1429ZM203.544 42.5H208.901V47.8571H203.544V42.5ZM198.186 42.5H203.544V47.8571H198.186V42.5ZM208.901 42.5H214.258V47.8571H208.901V42.5ZM208.901 47.8571H214.258V53.2143H208.901V47.8571ZM208.901 69.2857H214.258V74.6429H208.901V69.2857ZM203.544 69.2857H208.901V74.6429H203.544V69.2857ZM203.544 47.8571H208.901V53.2143H203.544V47.8571ZM198.186 69.2857H203.544V74.6429H198.186V69.2857ZM203.544 74.6429H208.901V80H203.544V74.6429ZM198.186 74.6429H203.544V80H198.186V74.6429ZM192.829 74.6429H198.186V80H192.829V74.6429ZM187.472 74.6429H192.829V80H187.472V74.6429ZM182.115 74.6429H187.472V80H182.115V74.6429ZM182.115 69.2857H187.472V74.6429H182.115V69.2857ZM187.472 69.2857H192.829V74.6429H187.472V69.2857ZM182.115 63.9286H187.472V69.2857H182.115V63.9286ZM176.758 69.2857H182.115V74.6429H176.758V69.2857ZM176.758 63.9286H182.115V69.2857H176.758V63.9286ZM176.758 58.5714H182.115V63.9286H176.758V58.5714ZM176.758 53.2143H182.115V58.5714H176.758V53.2143ZM176.758 47.8571H182.115V53.2143H176.758V47.8571ZM176.758 42.5H182.115V47.8571H176.758V42.5ZM182.115 47.8571H187.472V53.2143H182.115V47.8571ZM182.115 53.2143H187.472V58.5714H182.115V53.2143ZM182.115 58.5714H187.472V63.9286H182.115V58.5714ZM192.829 69.2857H198.186V74.6429H192.829V69.2857ZM192.829 42.5H198.186V47.8571H192.829V42.5ZM203.544 53.2143H208.901V58.5714H203.544V53.2143ZM208.901 53.2143H214.258V58.5714H208.901V53.2143ZM187.472 58.5714H192.829V63.9286H187.472V58.5714ZM192.829 58.5714H198.186V63.9286H192.829V58.5714ZM198.186 58.5714H203.544V63.9286H198.186V58.5714ZM203.544 58.5714H208.901V63.9286H203.544V58.5714ZM208.901 58.5714H214.258V63.9286H208.901V58.5714ZM198.186 53.2143H203.544V58.5714H198.186V53.2143ZM192.829 53.2143H198.186V58.5714H192.829V53.2143ZM187.472 53.2143H192.829V58.5714H187.472V53.2143ZM219.629 42.5H224.986V47.8571H219.629V42.5ZM219.629 37.1429H224.986V42.5H219.629V37.1429ZM224.986 37.1429H230.343V42.5H224.986V37.1429ZM224.986 42.5H230.343V47.8571H224.986V42.5ZM224.986 47.8571H230.343V53.2143H224.986V47.8571ZM224.986 53.2143H230.343V58.5714H224.986V53.2143ZM224.986 58.5714H230.343V63.9286H224.986V58.5714ZM219.629 58.5714H224.986V63.9286H219.629V58.5714ZM219.629 53.2143H224.986V58.5714H219.629V53.2143ZM219.629 47.8571H224.986V53.2143H219.629V47.8571ZM219.629 63.9286H224.986V69.2857H219.629V63.9286ZM224.986 63.9286H230.343V69.2857H224.986V63.9286ZM224.986 69.2857H230.343V74.6429H224.986V69.2857ZM224.986 74.6429H230.343V80H224.986V74.6429ZM219.629 74.6429H224.986V80H219.629V74.6429ZM219.629 69.2857H224.986V74.6429H219.629V69.2857ZM246.415 74.6429H251.772V80H246.415V74.6429ZM251.772 69.2857H257.129V74.6429H251.772V69.2857ZM251.772 63.9286H257.129V69.2857H251.772V63.9286ZM251.772 58.5714H257.129V63.9286H251.772V58.5714ZM251.772 53.2143H257.129V58.5714H251.772V53.2143ZM251.772 47.8571H257.129V53.2143H251.772V47.8571ZM251.772 42.5H257.129V47.8571H251.772V42.5ZM246.415 53.2143H251.772V58.5714H246.415V53.2143ZM246.415 58.5714H251.772V63.9286H246.415V58.5714ZM246.415 63.9286H251.772V69.2857H246.415V63.9286ZM246.415 69.2857H251.772V74.6429H246.415V69.2857ZM246.415 47.8571H251.772V53.2143H246.415V47.8571ZM230.343 42.5H235.7V47.8571H230.343V42.5ZM235.7 42.5H241.057V47.8571H235.7V42.5ZM241.057 42.5H246.415V47.8571H241.057V42.5ZM241.057 37.1429H246.415V42.5H241.057V37.1429ZM246.415 37.1429H251.772V42.5H246.415V37.1429ZM246.415 42.5H251.772V47.8571H246.415V42.5ZM235.7 37.1429H241.057V42.5H235.7V37.1429ZM219.629 26.4286H224.986V31.7857H219.629V26.4286ZM224.986 26.4286H230.343V31.7857H224.986V26.4286ZM224.986 31.7857H230.343V37.1429H224.986V31.7857ZM219.629 31.7857H224.986V37.1429H219.629V31.7857ZM230.343 74.6429H235.7V80H230.343V74.6429ZM235.7 74.6429H241.057V80H235.7V74.6429ZM241.057 74.6429H246.415V80H241.057V74.6429ZM241.057 69.2857H246.415V74.6429H241.057V69.2857ZM235.7 69.2857H241.057V74.6429H235.7V69.2857ZM230.343 69.2857H235.7V74.6429H230.343V69.2857Z" fill="black"/>
</g>
<defs>
<clipPath id="clip0_93_14">
<rect width="263" height="107" fill="white"/>
</clipPath>
</defs>
</svg>
