<svg width="676" height="54" viewBox="0 0 676 54" fill="none" xmlns="http://www.w3.org/2000/svg">
<path d="M10.7143 5.78571H16.0714V11.1429H10.7143V5.78571ZM16.0714 5.78571H21.4286V11.1429H16.0714V5.78571ZM16.0714 0.428573H21.4286V5.78571H16.0714V0.428573ZM21.4286 5.78571H26.7857V11.1429H21.4286V5.78571ZM21.4286 11.1429H26.7857V16.5H21.4286V11.1429ZM26.7857 11.1429H32.1429V16.5H26.7857V11.1429ZM16.0714 11.1429H21.4286V16.5H16.0714V11.1429ZM10.7143 11.1429H16.0714V16.5H10.7143V11.1429ZM5.35714 11.1429H10.7143V16.5H5.35714V11.1429ZM5.35714 16.5H10.7143V21.8571H5.35714V16.5ZM0 16.5H5.35714V21.8571H0V16.5ZM10.7143 16.5H16.0714V21.8571H10.7143V16.5ZM5.35714 21.8571H10.7143V27.2143H5.35714V21.8571ZM5.35714 27.2143H10.7143V32.5714H5.35714V27.2143ZM5.35714 32.5714H10.7143V37.9286H5.35714V32.5714ZM10.7143 32.5714H16.0714V37.9286H10.7143V32.5714ZM16.0714 32.5714H21.4286V37.9286H16.0714V32.5714ZM21.4286 32.5714H26.7857V37.9286H21.4286V32.5714ZM26.7857 32.5714H32.1429V37.9286H26.7857V32.5714ZM32.1429 32.5714H37.5V37.9286H32.1429V32.5714ZM32.1429 27.2143H37.5V32.5714H32.1429V27.2143ZM32.1429 21.8571H37.5V27.2143H32.1429V21.8571ZM32.1429 16.5H37.5V21.8571H32.1429V16.5ZM26.7857 16.5H32.1429V21.8571H26.7857V16.5ZM21.4286 16.5H26.7857V21.8571H21.4286V16.5ZM26.7857 21.8571H32.1429V27.2143H26.7857V21.8571ZM26.7857 27.2143H32.1429V32.5714H26.7857V27.2143ZM26.7857 37.9286H32.1429V43.2857H26.7857V37.9286ZM32.1429 37.9286H37.5V43.2857H32.1429V37.9286ZM32.1429 43.2857H37.5V48.6429H32.1429V43.2857ZM32.1429 48.6429H37.5V54H32.1429V48.6429ZM26.7857 48.6429H32.1429V54H26.7857V48.6429ZM26.7857 43.2857H32.1429V48.6429H26.7857V43.2857ZM21.4286 37.9286H26.7857V43.2857H21.4286V37.9286ZM16.0714 37.9286H21.4286V43.2857H16.0714V37.9286ZM10.7143 37.9286H16.0714V43.2857H10.7143V37.9286ZM5.35714 37.9286H10.7143V43.2857H5.35714V37.9286ZM5.35714 43.2857H10.7143V48.6429H5.35714V43.2857ZM5.35714 48.6429H10.7143V54H5.35714V48.6429ZM0 48.6429H5.35714V54H0V48.6429ZM0 43.2857H5.35714V48.6429H0V43.2857ZM0 37.9286H5.35714V43.2857H0V37.9286ZM0 32.5714H5.35714V37.9286H0V32.5714ZM0 27.2143H5.35714V32.5714H0V27.2143ZM0 21.8571H5.35714V27.2143H0V21.8571ZM42.8711 16.5H48.2282V21.8571H42.8711V16.5ZM42.8711 11.1429H48.2282V16.5H42.8711V11.1429ZM48.2282 11.1429H53.5854V16.5H48.2282V11.1429ZM48.2282 16.5H53.5854V21.8571H48.2282V16.5ZM48.2282 21.8571H53.5854V27.2143H48.2282V21.8571ZM48.2282 27.2143H53.5854V32.5714H48.2282V27.2143ZM48.2282 32.5714H53.5854V37.9286H48.2282V32.5714ZM42.8711 32.5714H48.2282V37.9286H42.8711V32.5714ZM42.8711 27.2143H48.2282V32.5714H42.8711V27.2143ZM42.8711 21.8571H48.2282V27.2143H42.8711V21.8571ZM42.8711 37.9286H48.2282V43.2857H42.8711V37.9286ZM48.2282 37.9286H53.5854V43.2857H48.2282V37.9286ZM48.2282 43.2857H53.5854V48.6429H48.2282V43.2857ZM48.2282 48.6429H53.5854V54H48.2282V48.6429ZM42.8711 48.6429H48.2282V54H42.8711V48.6429ZM42.8711 43.2857H48.2282V48.6429H42.8711V43.2857ZM53.5854 16.5H58.9425V21.8571H53.5854V16.5ZM58.9425 16.5H64.2997V21.8571H58.9425V16.5ZM64.2997 16.5H69.6568V21.8571H64.2997V16.5ZM64.2997 11.1429H69.6568V16.5H64.2997V11.1429ZM58.9425 11.1429H64.2997V16.5H58.9425V11.1429ZM53.5854 21.8571H58.9425V27.2143H53.5854V21.8571ZM69.6568 16.5H75.014V21.8571H69.6568V16.5ZM64.2997 21.8571H69.6568V27.2143H64.2997V21.8571ZM91.0854 11.1429H96.4425V16.5H91.0854V11.1429ZM85.7282 11.1429H91.0854V16.5H85.7282V11.1429ZM85.7282 16.5H91.0854V21.8571H85.7282V16.5ZM91.0854 16.5H96.4425V21.8571H91.0854V16.5ZM96.4425 11.1429H101.8V16.5H96.4425V11.1429ZM101.8 11.1429H107.157V16.5H101.8V11.1429ZM107.157 11.1429H112.514V16.5H107.157V11.1429ZM107.157 16.5H112.514V21.8571H107.157V16.5ZM101.8 16.5H107.157V21.8571H101.8V16.5ZM112.514 16.5H117.871V21.8571H112.514V16.5ZM112.514 21.8571H117.871V27.2143H112.514V21.8571ZM112.514 37.9286H117.871V43.2857H112.514V37.9286ZM112.514 43.2857H117.871V48.6429H112.514V43.2857ZM107.157 43.2857H112.514V48.6429H107.157V43.2857ZM107.157 37.9286H112.514V43.2857H107.157V37.9286ZM107.157 21.8571H112.514V27.2143H107.157V21.8571ZM101.8 43.2857H107.157V48.6429H101.8V43.2857ZM107.157 48.6429H112.514V54H107.157V48.6429ZM101.8 48.6429H107.157V54H101.8V48.6429ZM96.4425 48.6429H101.8V54H96.4425V48.6429ZM91.0854 48.6429H96.4425V54H91.0854V48.6429ZM85.7282 48.6429H91.0854V54H85.7282V48.6429ZM85.7282 43.2857H91.0854V48.6429H85.7282V43.2857ZM91.0854 43.2857H96.4425V48.6429H91.0854V43.2857ZM85.7282 37.9286H91.0854V43.2857H85.7282V37.9286ZM80.3711 43.2857H85.7282V48.6429H80.3711V43.2857ZM80.3711 37.9286H85.7282V43.2857H80.3711V37.9286ZM80.3711 32.5714H85.7282V37.9286H80.3711V32.5714ZM80.3711 27.2143H85.7282V32.5714H80.3711V27.2143ZM80.3711 21.8571H85.7282V27.2143H80.3711V21.8571ZM80.3711 16.5H85.7282V21.8571H80.3711V16.5ZM85.7282 21.8571H91.0854V27.2143H85.7282V21.8571ZM85.7282 27.2143H91.0854V32.5714H85.7282V27.2143ZM85.7282 32.5714H91.0854V37.9286H85.7282V32.5714ZM96.4425 43.2857H101.8V48.6429H96.4425V43.2857ZM96.4425 16.5H101.8V21.8571H96.4425V16.5ZM123.242 16.5H128.599V21.8571H123.242V16.5ZM123.242 11.1429H128.599V16.5H123.242V11.1429ZM128.599 11.1429H133.956V16.5H128.599V11.1429ZM128.599 16.5H133.956V21.8571H128.599V16.5ZM128.599 21.8571H133.956V27.2143H128.599V21.8571ZM128.599 27.2143H133.956V32.5714H128.599V27.2143ZM128.599 32.5714H133.956V37.9286H128.599V32.5714ZM123.242 32.5714H128.599V37.9286H123.242V32.5714ZM123.242 27.2143H128.599V32.5714H123.242V27.2143ZM123.242 21.8571H128.599V27.2143H123.242V21.8571ZM123.242 37.9286H128.599V43.2857H123.242V37.9286ZM128.599 37.9286H133.956V43.2857H128.599V37.9286ZM128.599 43.2857H133.956V48.6429H128.599V43.2857ZM128.599 48.6429H133.956V54H128.599V48.6429ZM123.242 48.6429H128.599V54H123.242V48.6429ZM123.242 43.2857H128.599V48.6429H123.242V43.2857ZM150.028 48.6429H155.385V54H150.028V48.6429ZM155.385 48.6429H160.742V54H155.385V48.6429ZM155.385 43.2857H160.742V48.6429H155.385V43.2857ZM155.385 37.9286H160.742V43.2857H155.385V37.9286ZM155.385 32.5714H160.742V37.9286H155.385V32.5714ZM155.385 27.2143H160.742V32.5714H155.385V27.2143ZM155.385 21.8571H160.742V27.2143H155.385V21.8571ZM155.385 16.5H160.742V21.8571H155.385V16.5ZM150.028 27.2143H155.385V32.5714H150.028V27.2143ZM150.028 32.5714H155.385V37.9286H150.028V32.5714ZM150.028 37.9286H155.385V43.2857H150.028V37.9286ZM150.028 43.2857H155.385V48.6429H150.028V43.2857ZM150.028 21.8571H155.385V27.2143H150.028V21.8571ZM133.956 16.5H139.314V21.8571H133.956V16.5ZM139.314 16.5H144.671V21.8571H139.314V16.5ZM144.671 16.5H150.028V21.8571H144.671V16.5ZM144.671 11.1429H150.028V16.5H144.671V11.1429ZM150.028 11.1429H155.385V16.5H150.028V11.1429ZM150.028 16.5H155.385V21.8571H150.028V16.5ZM139.314 11.1429H144.671V16.5H139.314V11.1429ZM123.242 0.428573H128.599V5.78571H123.242V0.428573ZM128.599 0.428573H133.956V5.78571H128.599V0.428573ZM128.599 5.78571H133.956V11.1429H128.599V5.78571ZM123.242 5.78571H128.599V11.1429H123.242V5.78571ZM166.113 0.428573H176.828V11.1429H166.113V0.428573ZM166.113 16.5H176.828V54H166.113V16.5ZM203.655 43.2857H209.012V48.6429H203.655V43.2857ZM203.655 48.6429H209.012V54H203.655V48.6429ZM198.298 48.6429H203.655V54H198.298V48.6429ZM198.298 43.2857H203.655V48.6429H198.298V43.2857ZM192.941 48.6429H198.298V54H192.941V48.6429ZM192.941 43.2857H198.298V48.6429H192.941V43.2857ZM187.584 43.2857H192.941V48.6429H187.584V43.2857ZM187.584 37.9286H192.941V43.2857H187.584V37.9286ZM187.584 32.5714H192.941V37.9286H187.584V32.5714ZM187.584 27.2143H192.941V32.5714H187.584V27.2143ZM187.584 21.8571H192.941V27.2143H187.584V21.8571ZM187.584 16.5H192.941V21.8571H187.584V16.5ZM192.941 32.5714H198.298V37.9286H192.941V32.5714ZM192.941 37.9286H198.298V43.2857H192.941V37.9286ZM192.941 27.2143H198.298V32.5714H192.941V27.2143ZM192.941 21.8571H198.298V27.2143H192.941V21.8571ZM192.941 0.428573H198.298V5.78571H192.941V0.428573ZM192.941 5.78571H198.298V11.1429H192.941V5.78571ZM192.941 11.1429H198.298V16.5H192.941V11.1429ZM192.941 16.5H198.298V21.8571H192.941V16.5ZM187.584 11.1429H192.941V16.5H187.584V11.1429ZM182.227 16.5H187.584V21.8571H182.227V16.5ZM198.298 16.5H203.655V21.8571H198.298V16.5ZM203.655 16.5H209.012V21.8571H203.655V16.5ZM187.584 5.78571H192.941V11.1429H187.584V5.78571ZM182.227 21.8571H187.584V27.2143H182.227V21.8571ZM198.298 21.8571H203.655V27.2143H198.298V21.8571ZM203.655 21.8571H209.012V27.2143H203.655V21.8571ZM225.07 11.1429H230.427V16.5H225.07V11.1429ZM219.713 11.1429H225.07V16.5H219.713V11.1429ZM219.713 16.5H225.07V21.8571H219.713V16.5ZM225.07 16.5H230.427V21.8571H225.07V16.5ZM230.427 11.1429H235.784V16.5H230.427V11.1429ZM235.784 11.1429H241.141V16.5H235.784V11.1429ZM241.141 11.1429H246.498V16.5H241.141V11.1429ZM241.141 16.5H246.498V21.8571H241.141V16.5ZM235.784 16.5H241.141V21.8571H235.784V16.5ZM246.498 16.5H251.855V21.8571H246.498V16.5ZM246.498 21.8571H251.855V27.2143H246.498V21.8571ZM246.498 43.2857H251.855V48.6429H246.498V43.2857ZM241.141 43.2857H246.498V48.6429H241.141V43.2857ZM241.141 21.8571H246.498V27.2143H241.141V21.8571ZM235.784 43.2857H241.141V48.6429H235.784V43.2857ZM241.141 48.6429H246.498V54H241.141V48.6429ZM235.784 48.6429H241.141V54H235.784V48.6429ZM230.427 48.6429H235.784V54H230.427V48.6429ZM225.07 48.6429H230.427V54H225.07V48.6429ZM219.713 48.6429H225.07V54H219.713V48.6429ZM219.713 43.2857H225.07V48.6429H219.713V43.2857ZM225.07 43.2857H230.427V48.6429H225.07V43.2857ZM219.713 37.9286H225.07V43.2857H219.713V37.9286ZM214.355 43.2857H219.713V48.6429H214.355V43.2857ZM214.355 37.9286H219.713V43.2857H214.355V37.9286ZM214.355 32.5714H219.713V37.9286H214.355V32.5714ZM214.355 27.2143H219.713V32.5714H214.355V27.2143ZM214.355 21.8571H219.713V27.2143H214.355V21.8571ZM214.355 16.5H219.713V21.8571H214.355V16.5ZM219.713 21.8571H225.07V27.2143H219.713V21.8571ZM219.713 27.2143H225.07V32.5714H219.713V27.2143ZM219.713 32.5714H225.07V37.9286H219.713V32.5714ZM230.427 43.2857H235.784V48.6429H230.427V43.2857ZM230.427 16.5H235.784V21.8571H230.427V16.5ZM241.141 27.2143H246.498V32.5714H241.141V27.2143ZM246.498 27.2143H251.855V32.5714H246.498V27.2143ZM225.07 32.5714H230.427V37.9286H225.07V32.5714ZM230.427 32.5714H235.784V37.9286H230.427V32.5714ZM235.784 32.5714H241.141V37.9286H235.784V32.5714ZM241.141 32.5714H246.498V37.9286H241.141V32.5714ZM246.498 32.5714H251.855V37.9286H246.498V32.5714ZM235.784 27.2143H241.141V32.5714H235.784V27.2143ZM230.427 27.2143H235.784V32.5714H230.427V27.2143ZM225.07 27.2143H230.427V32.5714H225.07V27.2143ZM267.941 11.1429H273.298V16.5H267.941V11.1429ZM262.584 11.1429H267.941V16.5H262.584V11.1429ZM262.584 16.5H267.941V21.8571H262.584V16.5ZM267.941 16.5H273.298V21.8571H267.941V16.5ZM273.298 11.1429H278.655V16.5H273.298V11.1429ZM278.655 11.1429H284.012V16.5H278.655V11.1429ZM284.012 11.1429H289.369V16.5H284.012V11.1429ZM284.012 16.5H289.369V21.8571H284.012V16.5ZM278.655 16.5H284.012V21.8571H278.655V16.5ZM289.369 16.5H294.727V21.8571H289.369V16.5ZM289.369 21.8571H294.727V27.2143H289.369V21.8571ZM289.369 37.9286H294.727V43.2857H289.369V37.9286ZM289.369 43.2857H294.727V48.6429H289.369V43.2857ZM284.012 43.2857H289.369V48.6429H284.012V43.2857ZM284.012 37.9286H289.369V43.2857H284.012V37.9286ZM284.012 21.8571H289.369V27.2143H284.012V21.8571ZM278.655 43.2857H284.012V48.6429H278.655V43.2857ZM284.012 48.6429H289.369V54H284.012V48.6429ZM278.655 48.6429H284.012V54H278.655V48.6429ZM273.298 48.6429H278.655V54H273.298V48.6429ZM267.941 48.6429H273.298V54H267.941V48.6429ZM262.584 48.6429H267.941V54H262.584V48.6429ZM262.584 43.2857H267.941V48.6429H262.584V43.2857ZM267.941 43.2857H273.298V48.6429H267.941V43.2857ZM262.584 37.9286H267.941V43.2857H262.584V37.9286ZM257.227 43.2857H262.584V48.6429H257.227V43.2857ZM257.227 37.9286H262.584V43.2857H257.227V37.9286ZM257.227 32.5714H262.584V37.9286H257.227V32.5714ZM257.227 27.2143H262.584V32.5714H257.227V27.2143ZM257.227 21.8571H262.584V27.2143H257.227V21.8571ZM257.227 16.5H262.584V21.8571H257.227V16.5ZM262.584 21.8571H267.941V27.2143H262.584V21.8571ZM262.584 27.2143H267.941V32.5714H262.584V27.2143ZM262.584 32.5714H267.941V37.9286H262.584V32.5714ZM273.298 43.2857H278.655V48.6429H273.298V43.2857ZM273.298 16.5H278.655V21.8571H273.298V16.5ZM321.526 43.2857H326.883V48.6429H321.526V43.2857ZM321.526 48.6429H326.883V54H321.526V48.6429ZM316.169 48.6429H321.526V54H316.169V48.6429ZM316.169 43.2857H321.526V48.6429H316.169V43.2857ZM310.812 48.6429H316.169V54H310.812V48.6429ZM310.812 43.2857H316.169V48.6429H310.812V43.2857ZM305.455 43.2857H310.812V48.6429H305.455V43.2857ZM305.455 37.9286H310.812V43.2857H305.455V37.9286ZM305.455 32.5714H310.812V37.9286H305.455V32.5714ZM305.455 27.2143H310.812V32.5714H305.455V27.2143ZM305.455 21.8571H310.812V27.2143H305.455V21.8571ZM305.455 16.5H310.812V21.8571H305.455V16.5ZM310.812 32.5714H316.169V37.9286H310.812V32.5714ZM310.812 37.9286H316.169V43.2857H310.812V37.9286ZM310.812 27.2143H316.169V32.5714H310.812V27.2143ZM310.812 21.8571H316.169V27.2143H310.812V21.8571ZM310.812 0.428573H316.169V5.78571H310.812V0.428573ZM310.812 5.78571H316.169V11.1429H310.812V5.78571ZM310.812 11.1429H316.169V16.5H310.812V11.1429ZM310.812 16.5H316.169V21.8571H310.812V16.5ZM305.455 11.1429H310.812V16.5H305.455V11.1429ZM300.098 16.5H305.455V21.8571H300.098V16.5ZM316.169 16.5H321.526V21.8571H316.169V16.5ZM321.526 16.5H326.883V21.8571H321.526V16.5ZM305.455 5.78571H310.812V11.1429H305.455V5.78571ZM300.098 21.8571H305.455V27.2143H300.098V21.8571ZM316.169 21.8571H321.526V27.2143H316.169V21.8571ZM321.526 21.8571H326.883V27.2143H321.526V21.8571ZM337.584 0.428573H342.941V5.78571H337.584V0.428573ZM337.584 5.78571H342.941V11.1429H337.584V5.78571ZM332.227 5.78571H337.584V11.1429H332.227V5.78571ZM332.227 0.428573H337.584V5.78571H332.227V0.428573ZM337.584 11.1429H342.941V16.5H337.584V11.1429ZM332.227 16.5H337.584V21.8571H332.227V16.5ZM348.34 16.5H353.697V21.8571H348.34V16.5ZM353.697 21.8571H359.054V27.2143H353.697V21.8571ZM348.34 21.8571H353.697V27.2143H348.34V21.8571ZM348.34 27.2143H353.697V32.5714H348.34V27.2143ZM353.697 27.2143H359.054V32.5714H353.697V27.2143ZM353.697 32.5714H359.054V37.9286H353.697V32.5714ZM359.054 32.5714H364.411V37.9286H359.054V32.5714ZM364.411 32.5714H369.768V37.9286H364.411V32.5714ZM369.768 27.2143H375.126V32.5714H369.768V27.2143ZM364.411 27.2143H369.768V32.5714H364.411V27.2143ZM359.054 27.2143H364.411V32.5714H359.054V27.2143ZM369.768 32.5714H375.126V37.9286H369.768V32.5714ZM375.126 32.5714H380.483V37.9286H375.126V32.5714ZM375.126 37.9286H380.483V43.2857H375.126V37.9286ZM369.768 37.9286H375.126V43.2857H369.768V37.9286ZM369.768 43.2857H375.126V48.6429H369.768V43.2857ZM375.126 43.2857H380.483V48.6429H375.126V43.2857ZM369.768 48.6429H375.126V54H369.768V48.6429ZM364.411 43.2857H369.768V48.6429H364.411V43.2857ZM359.054 43.2857H364.411V48.6429H359.054V43.2857ZM353.697 43.2857H359.054V48.6429H353.697V43.2857ZM348.34 43.2857H353.697V48.6429H348.34V43.2857ZM353.697 48.6429H359.054V54H353.697V48.6429ZM359.054 48.6429H364.411V54H359.054V48.6429ZM364.411 48.6429H369.768V54H364.411V48.6429ZM375.126 16.5H380.483V21.8571H375.126V16.5ZM369.768 16.5H375.126V21.8571H369.768V16.5ZM369.768 11.1429H375.126V16.5H369.768V11.1429ZM364.411 11.1429H369.768V16.5H364.411V11.1429ZM359.054 11.1429H364.411V16.5H359.054V11.1429ZM353.697 11.1429H359.054V16.5H353.697V11.1429ZM353.697 16.5H359.054V21.8571H353.697V16.5ZM359.054 16.5H364.411V21.8571H359.054V16.5ZM364.411 16.5H369.768V21.8571H364.411V16.5ZM407.227 11.1429H412.584V16.5H407.227V11.1429ZM407.227 16.5H412.584V21.8571H407.227V16.5ZM407.227 21.8571H412.584V27.2143H407.227V21.8571ZM407.227 27.2143H412.584V32.5714H407.227V27.2143ZM407.227 32.5714H412.584V37.9286H407.227V32.5714ZM407.227 37.9286H412.584V43.2857H407.227V37.9286ZM412.584 37.9286H417.941V43.2857H412.584V37.9286ZM412.584 43.2857H417.941V48.6429H412.584V43.2857ZM417.941 43.2857H423.298V48.6429H417.941V43.2857ZM417.941 48.6429H423.298V54H417.941V48.6429ZM423.298 43.2857H428.655V48.6429H423.298V43.2857ZM428.655 37.9286H434.012V43.2857H428.655V37.9286ZM434.012 21.8571H439.369V27.2143H434.012V21.8571ZM428.655 11.1429H434.012V16.5H428.655V11.1429ZM434.012 11.1429H439.369V16.5H434.012V11.1429ZM434.012 16.5H439.369V21.8571H434.012V16.5ZM434.012 27.2143H439.369V32.5714H434.012V27.2143ZM434.012 32.5714H439.369V37.9286H434.012V32.5714ZM428.655 32.5714H434.012V37.9286H428.655V32.5714ZM428.655 27.2143H434.012V32.5714H428.655V27.2143ZM428.655 21.8571H434.012V27.2143H428.655V21.8571ZM428.655 16.5H434.012V21.8571H428.655V16.5ZM434.012 37.9286H439.369V43.2857H434.012V37.9286ZM444.727 43.2857H450.084V48.6429H444.727V43.2857ZM444.727 48.6429H450.084V54H444.727V48.6429ZM450.084 43.2857H455.441V48.6429H450.084V43.2857ZM450.084 37.9286H455.441V43.2857H450.084V37.9286ZM455.441 37.9286H460.798V43.2857H455.441V37.9286ZM455.441 32.5714H460.798V37.9286H455.441V32.5714ZM455.441 27.2143H460.798V32.5714H455.441V27.2143ZM455.441 21.8571H460.798V27.2143H455.441V21.8571ZM455.441 16.5H460.798V21.8571H455.441V16.5ZM455.441 11.1429H460.798V16.5H455.441V11.1429ZM412.584 16.5H417.941V21.8571H412.584V16.5ZM412.584 21.8571H417.941V27.2143H412.584V21.8571ZM412.584 27.2143H417.941V32.5714H412.584V27.2143ZM412.584 32.5714H417.941V37.9286H412.584V32.5714ZM412.584 11.1429H417.941V16.5H412.584V11.1429ZM450.084 11.1429H455.441V16.5H450.084V11.1429ZM450.084 16.5H455.441V21.8571H450.084V16.5ZM450.084 21.8571H455.441V27.2143H450.084V21.8571ZM450.084 27.2143H455.441V32.5714H450.084V27.2143ZM450.084 32.5714H455.441V37.9286H450.084V32.5714ZM423.298 48.6429H428.655V54H423.298V48.6429ZM428.655 43.2857H434.012V48.6429H428.655V43.2857ZM434.012 43.2857H439.369V48.6429H434.012V43.2857ZM439.369 43.2857H444.727V48.6429H439.369V43.2857ZM439.369 48.6429H444.727V54H439.369V48.6429ZM417.941 37.9286H423.298V43.2857H417.941V37.9286ZM444.727 37.9286H450.084V43.2857H444.727V37.9286ZM476.828 11.1429H482.185V16.5H476.828V11.1429ZM471.47 11.1429H476.828V16.5H471.47V11.1429ZM471.47 16.5H476.828V21.8571H471.47V16.5ZM476.828 16.5H482.185V21.8571H476.828V16.5ZM482.185 11.1429H487.542V16.5H482.185V11.1429ZM487.542 11.1429H492.899V16.5H487.542V11.1429ZM492.899 11.1429H498.256V16.5H492.899V11.1429ZM492.899 16.5H498.256V21.8571H492.899V16.5ZM487.542 16.5H492.899V21.8571H487.542V16.5ZM498.256 16.5H503.613V21.8571H498.256V16.5ZM498.256 21.8571H503.613V27.2143H498.256V21.8571ZM498.256 43.2857H503.613V48.6429H498.256V43.2857ZM492.899 43.2857H498.256V48.6429H492.899V43.2857ZM492.899 21.8571H498.256V27.2143H492.899V21.8571ZM487.542 43.2857H492.899V48.6429H487.542V43.2857ZM492.899 48.6429H498.256V54H492.899V48.6429ZM487.542 48.6429H492.899V54H487.542V48.6429ZM482.185 48.6429H487.542V54H482.185V48.6429ZM476.828 48.6429H482.185V54H476.828V48.6429ZM471.47 48.6429H476.828V54H471.47V48.6429ZM471.47 43.2857H476.828V48.6429H471.47V43.2857ZM476.828 43.2857H482.185V48.6429H476.828V43.2857ZM471.47 37.9286H476.828V43.2857H471.47V37.9286ZM466.113 43.2857H471.47V48.6429H466.113V43.2857ZM466.113 37.9286H471.47V43.2857H466.113V37.9286ZM466.113 32.5714H471.47V37.9286H466.113V32.5714ZM466.113 27.2143H471.47V32.5714H466.113V27.2143ZM466.113 21.8571H471.47V27.2143H466.113V21.8571ZM466.113 16.5H471.47V21.8571H466.113V16.5ZM471.47 21.8571H476.828V27.2143H471.47V21.8571ZM471.47 27.2143H476.828V32.5714H471.47V27.2143ZM471.47 32.5714H476.828V37.9286H471.47V32.5714ZM482.185 43.2857H487.542V48.6429H482.185V43.2857ZM482.185 16.5H487.542V21.8571H482.185V16.5ZM492.899 27.2143H498.256V32.5714H492.899V27.2143ZM498.256 27.2143H503.613V32.5714H498.256V27.2143ZM476.828 32.5714H482.185V37.9286H476.828V32.5714ZM482.185 32.5714H487.542V37.9286H482.185V32.5714ZM487.542 32.5714H492.899V37.9286H487.542V32.5714ZM492.899 32.5714H498.256V37.9286H492.899V32.5714ZM498.256 32.5714H503.613V37.9286H498.256V32.5714ZM487.542 27.2143H492.899V32.5714H487.542V27.2143ZM482.185 27.2143H487.542V32.5714H482.185V27.2143ZM476.828 27.2143H482.185V32.5714H476.828V27.2143ZM508.984 16.5H514.342V21.8571H508.984V16.5ZM508.984 11.1429H514.342V16.5H508.984V11.1429ZM514.342 11.1429H519.699V16.5H514.342V11.1429ZM514.342 16.5H519.699V21.8571H514.342V16.5ZM514.342 21.8571H519.699V27.2143H514.342V21.8571ZM514.342 27.2143H519.699V32.5714H514.342V27.2143ZM514.342 32.5714H519.699V37.9286H514.342V32.5714ZM508.984 32.5714H514.342V37.9286H508.984V32.5714ZM508.984 27.2143H514.342V32.5714H508.984V27.2143ZM508.984 21.8571H514.342V27.2143H508.984V21.8571ZM508.984 37.9286H514.342V43.2857H508.984V37.9286ZM514.342 37.9286H519.699V43.2857H514.342V37.9286ZM514.342 43.2857H519.699V48.6429H514.342V43.2857ZM514.342 48.6429H519.699V54H514.342V48.6429ZM508.984 48.6429H514.342V54H508.984V48.6429ZM508.984 43.2857H514.342V48.6429H508.984V43.2857ZM535.77 48.6429H541.127V54H535.77V48.6429ZM541.127 43.2857H546.484V48.6429H541.127V43.2857ZM541.127 37.9286H546.484V43.2857H541.127V37.9286ZM541.127 32.5714H546.484V37.9286H541.127V32.5714ZM541.127 27.2143H546.484V32.5714H541.127V27.2143ZM541.127 21.8571H546.484V27.2143H541.127V21.8571ZM541.127 16.5H546.484V21.8571H541.127V16.5ZM535.77 27.2143H541.127V32.5714H535.77V27.2143ZM535.77 32.5714H541.127V37.9286H535.77V32.5714ZM535.77 37.9286H541.127V43.2857H535.77V37.9286ZM535.77 43.2857H541.127V48.6429H535.77V43.2857ZM535.77 21.8571H541.127V27.2143H535.77V21.8571ZM519.699 16.5H525.056V21.8571H519.699V16.5ZM525.056 16.5H530.413V21.8571H525.056V16.5ZM530.413 16.5H535.77V21.8571H530.413V16.5ZM530.413 11.1429H535.77V16.5H530.413V11.1429ZM535.77 11.1429H541.127V16.5H535.77V11.1429ZM535.77 16.5H541.127V21.8571H535.77V16.5ZM525.056 11.1429H530.413V16.5H525.056V11.1429ZM508.984 0.428573H514.342V5.78571H508.984V0.428573ZM514.342 0.428573H519.699V5.78571H514.342V0.428573ZM514.342 5.78571H519.699V11.1429H514.342V5.78571ZM508.984 5.78571H514.342V11.1429H508.984V5.78571ZM519.699 48.6429H525.056V54H519.699V48.6429ZM525.056 48.6429H530.413V54H525.056V48.6429ZM530.413 48.6429H535.77V54H530.413V48.6429ZM530.413 43.2857H535.77V48.6429H530.413V43.2857ZM525.056 43.2857H530.413V48.6429H525.056V43.2857ZM519.699 43.2857H525.056V48.6429H519.699V43.2857ZM551.855 16.5H557.213V21.8571H551.855V16.5ZM557.213 21.8571H562.57V27.2143H557.213V21.8571ZM551.855 21.8571H557.213V27.2143H551.855V21.8571ZM551.855 27.2143H557.213V32.5714H551.855V27.2143ZM557.213 27.2143H562.57V32.5714H557.213V27.2143ZM557.213 32.5714H562.57V37.9286H557.213V32.5714ZM562.57 32.5714H567.927V37.9286H562.57V32.5714ZM567.927 32.5714H573.284V37.9286H567.927V32.5714ZM573.284 27.2143H578.641V32.5714H573.284V27.2143ZM567.927 27.2143H573.284V32.5714H567.927V27.2143ZM562.57 27.2143H567.927V32.5714H562.57V27.2143ZM573.284 32.5714H578.641V37.9286H573.284V32.5714ZM578.641 32.5714H583.998V37.9286H578.641V32.5714ZM578.641 37.9286H583.998V43.2857H578.641V37.9286ZM573.284 37.9286H578.641V43.2857H573.284V37.9286ZM573.284 43.2857H578.641V48.6429H573.284V43.2857ZM578.641 43.2857H583.998V48.6429H578.641V43.2857ZM573.284 48.6429H578.641V54H573.284V48.6429ZM567.927 43.2857H573.284V48.6429H567.927V43.2857ZM562.57 43.2857H567.927V48.6429H562.57V43.2857ZM557.213 43.2857H562.57V48.6429H557.213V43.2857ZM551.855 43.2857H557.213V48.6429H551.855V43.2857ZM557.213 48.6429H562.57V54H557.213V48.6429ZM562.57 48.6429H567.927V54H562.57V48.6429ZM567.927 48.6429H573.284V54H567.927V48.6429ZM578.641 16.5H583.998V21.8571H578.641V16.5ZM573.284 16.5H578.641V21.8571H573.284V16.5ZM573.284 11.1429H578.641V16.5H573.284V11.1429ZM567.927 11.1429H573.284V16.5H567.927V11.1429ZM562.57 11.1429H567.927V16.5H562.57V11.1429ZM557.213 11.1429H562.57V16.5H557.213V11.1429ZM557.213 16.5H562.57V21.8571H557.213V16.5ZM562.57 16.5H567.927V21.8571H562.57V16.5ZM567.927 16.5H573.284V21.8571H567.927V16.5ZM589.355 0.428573H600.07V11.1429H589.355V0.428573ZM589.355 16.5H600.07V54H589.355V16.5ZM626.897 43.2857H632.254V48.6429H626.897V43.2857ZM626.897 48.6429H632.254V54H626.897V48.6429ZM621.54 48.6429H626.897V54H621.54V48.6429ZM621.54 43.2857H626.897V48.6429H621.54V43.2857ZM616.183 48.6429H621.54V54H616.183V48.6429ZM616.183 43.2857H621.54V48.6429H616.183V43.2857ZM610.826 43.2857H616.183V48.6429H610.826V43.2857ZM610.826 37.9286H616.183V43.2857H610.826V37.9286ZM610.826 32.5714H616.183V37.9286H610.826V32.5714ZM610.826 27.2143H616.183V32.5714H610.826V27.2143ZM610.826 21.8571H616.183V27.2143H610.826V21.8571ZM610.826 16.5H616.183V21.8571H610.826V16.5ZM616.183 32.5714H621.54V37.9286H616.183V32.5714ZM616.183 37.9286H621.54V43.2857H616.183V37.9286ZM616.183 27.2143H621.54V32.5714H616.183V27.2143ZM616.183 21.8571H621.54V27.2143H616.183V21.8571ZM616.183 0.428573H621.54V5.78571H616.183V0.428573ZM616.183 5.78571H621.54V11.1429H616.183V5.78571ZM616.183 11.1429H621.54V16.5H616.183V11.1429ZM616.183 16.5H621.54V21.8571H616.183V16.5ZM610.826 11.1429H616.183V16.5H610.826V11.1429ZM605.469 16.5H610.826V21.8571H605.469V16.5ZM621.54 16.5H626.897V21.8571H621.54V16.5ZM626.897 16.5H632.254V21.8571H626.897V16.5ZM610.826 5.78571H616.183V11.1429H610.826V5.78571ZM605.469 21.8571H610.826V27.2143H605.469V21.8571ZM621.54 21.8571H626.897V27.2143H621.54V21.8571ZM626.897 21.8571H632.254V27.2143H626.897V21.8571ZM648.312 11.1429H653.669V16.5H648.312V11.1429ZM642.955 11.1429H648.312V16.5H642.955V11.1429ZM642.955 16.5H648.312V21.8571H642.955V16.5ZM648.312 16.5H653.669V21.8571H648.312V16.5ZM653.669 11.1429H659.026V16.5H653.669V11.1429ZM659.026 11.1429H664.383V16.5H659.026V11.1429ZM664.383 11.1429H669.741V16.5H664.383V11.1429ZM664.383 16.5H669.741V21.8571H664.383V16.5ZM659.026 16.5H664.383V21.8571H659.026V16.5ZM669.741 16.5H675.098V21.8571H669.741V16.5ZM669.741 21.8571H675.098V27.2143H669.741V21.8571ZM669.741 43.2857H675.098V48.6429H669.741V43.2857ZM664.383 43.2857H669.741V48.6429H664.383V43.2857ZM664.383 21.8571H669.741V27.2143H664.383V21.8571ZM659.026 43.2857H664.383V48.6429H659.026V43.2857ZM664.383 48.6429H669.741V54H664.383V48.6429ZM659.026 48.6429H664.383V54H659.026V48.6429ZM653.669 48.6429H659.026V54H653.669V48.6429ZM648.312 48.6429H653.669V54H648.312V48.6429ZM642.955 48.6429H648.312V54H642.955V48.6429ZM642.955 43.2857H648.312V48.6429H642.955V43.2857ZM648.312 43.2857H653.669V48.6429H648.312V43.2857ZM642.955 37.9286H648.312V43.2857H642.955V37.9286ZM637.598 43.2857H642.955V48.6429H637.598V43.2857ZM637.598 37.9286H642.955V43.2857H637.598V37.9286ZM637.598 32.5714H642.955V37.9286H637.598V32.5714ZM637.598 27.2143H642.955V32.5714H637.598V27.2143ZM637.598 21.8571H642.955V27.2143H637.598V21.8571ZM637.598 16.5H642.955V21.8571H637.598V16.5ZM642.955 21.8571H648.312V27.2143H642.955V21.8571ZM642.955 27.2143H648.312V32.5714H642.955V27.2143ZM642.955 32.5714H648.312V37.9286H642.955V32.5714ZM653.669 43.2857H659.026V48.6429H653.669V43.2857ZM653.669 16.5H659.026V21.8571H653.669V16.5ZM664.383 27.2143H669.741V32.5714H664.383V27.2143ZM669.741 27.2143H675.098V32.5714H669.741V27.2143ZM648.312 32.5714H653.669V37.9286H648.312V32.5714ZM653.669 32.5714H659.026V37.9286H653.669V32.5714ZM659.026 32.5714H664.383V37.9286H659.026V32.5714ZM664.383 32.5714H669.741V37.9286H664.383V32.5714ZM669.741 32.5714H675.098V37.9286H669.741V32.5714ZM659.026 27.2143H664.383V32.5714H659.026V27.2143ZM653.669 27.2143H659.026V32.5714H653.669V27.2143ZM648.312 27.2143H653.669V32.5714H648.312V27.2143Z" fill="black"/>
</svg>
