<svg width="681" height="107" viewBox="0 0 681 107" fill="none" xmlns="http://www.w3.org/2000/svg">
<g clip-path="url(#clip0_98_3)">
<path d="M10.7143 31.7857H16.0714V37.1429H10.7143V31.7857ZM16.0714 31.7857H21.4286V37.1429H16.0714V31.7857ZM16.0714 26.4286H21.4286V31.7857H16.0714V26.4286ZM21.4286 31.7857H26.7857V37.1429H21.4286V31.7857ZM21.4286 37.1429H26.7857V42.5H21.4286V37.1429ZM26.7857 37.1429H32.1429V42.5H26.7857V37.1429ZM16.0714 37.1429H21.4286V42.5H16.0714V37.1429ZM10.7143 37.1429H16.0714V42.5H10.7143V37.1429ZM5.35714 37.1429H10.7143V42.5H5.35714V37.1429ZM5.35714 42.5H10.7143V47.8571H5.35714V42.5ZM0 42.5H5.35714V47.8571H0V42.5ZM10.7143 42.5H16.0714V47.8571H10.7143V42.5ZM5.35714 47.8571H10.7143V53.2143H5.35714V47.8571ZM5.35714 53.2143H10.7143V58.5714H5.35714V53.2143ZM5.35714 58.5714H10.7143V63.9286H5.35714V58.5714ZM10.7143 58.5714H16.0714V63.9286H10.7143V58.5714ZM16.0714 58.5714H21.4286V63.9286H16.0714V58.5714ZM21.4286 58.5714H26.7857V63.9286H21.4286V58.5714ZM26.7857 58.5714H32.1429V63.9286H26.7857V58.5714ZM32.1429 58.5714H37.5V63.9286H32.1429V58.5714ZM32.1429 53.2143H37.5V58.5714H32.1429V53.2143ZM32.1429 47.8571H37.5V53.2143H32.1429V47.8571ZM32.1429 42.5H37.5V47.8571H32.1429V42.5ZM26.7857 42.5H32.1429V47.8571H26.7857V42.5ZM21.4286 42.5H26.7857V47.8571H21.4286V42.5ZM26.7857 47.8571H32.1429V53.2143H26.7857V47.8571ZM26.7857 53.2143H32.1429V58.5714H26.7857V53.2143ZM26.7857 63.9286H32.1429V69.2857H26.7857V63.9286ZM32.1429 63.9286H37.5V69.2857H32.1429V63.9286ZM32.1429 69.2857H37.5V74.6429H32.1429V69.2857ZM32.1429 74.6429H37.5V80H32.1429V74.6429ZM26.7857 74.6429H32.1429V80H26.7857V74.6429ZM26.7857 69.2857H32.1429V74.6429H26.7857V69.2857ZM21.4286 63.9286H26.7857V69.2857H21.4286V63.9286ZM16.0714 63.9286H21.4286V69.2857H16.0714V63.9286ZM10.7143 63.9286H16.0714V69.2857H10.7143V63.9286ZM5.35714 63.9286H10.7143V69.2857H5.35714V63.9286ZM5.35714 69.2857H10.7143V74.6429H5.35714V69.2857ZM5.35714 74.6429H10.7143V80H5.35714V74.6429ZM0 74.6429H5.35714V80H0V74.6429ZM0 69.2857H5.35714V74.6429H0V69.2857ZM0 63.9286H5.35714V69.2857H0V63.9286ZM0 58.5714H5.35714V63.9286H0V58.5714ZM0 53.2143H5.35714V58.5714H0V53.2143ZM0 47.8571H5.35714V53.2143H0V47.8571ZM42.8711 42.5H48.2282V47.8571H42.8711V42.5ZM42.8711 37.1429H48.2282V42.5H42.8711V37.1429ZM48.2282 37.1429H53.5854V42.5H48.2282V37.1429ZM48.2282 42.5H53.5854V47.8571H48.2282V42.5ZM48.2282 47.8571H53.5854V53.2143H48.2282V47.8571ZM48.2282 53.2143H53.5854V58.5714H48.2282V53.2143ZM48.2282 58.5714H53.5854V63.9286H48.2282V58.5714ZM42.8711 58.5714H48.2282V63.9286H42.8711V58.5714ZM42.8711 53.2143H48.2282V58.5714H42.8711V53.2143ZM42.8711 47.8571H48.2282V53.2143H42.8711V47.8571ZM42.8711 63.9286H48.2282V69.2857H42.8711V63.9286ZM48.2282 63.9286H53.5854V69.2857H48.2282V63.9286ZM48.2282 69.2857H53.5854V74.6429H48.2282V69.2857ZM48.2282 74.6429H53.5854V80H48.2282V74.6429ZM42.8711 74.6429H48.2282V80H42.8711V74.6429ZM42.8711 69.2857H48.2282V74.6429H42.8711V69.2857ZM53.5854 42.5H58.9425V47.8571H53.5854V42.5ZM58.9425 42.5H64.2997V47.8571H58.9425V42.5ZM64.2997 42.5H69.6568V47.8571H64.2997V42.5ZM64.2997 37.1429H69.6568V42.5H64.2997V37.1429ZM58.9425 37.1429H64.2997V42.5H58.9425V37.1429ZM53.5854 47.8571H58.9425V53.2143H53.5854V47.8571ZM69.6568 42.5H75.014V47.8571H69.6568V42.5ZM64.2997 47.8571H69.6568V53.2143H64.2997V47.8571ZM91.0854 37.1429H96.4425V42.5H91.0854V37.1429ZM85.7282 37.1429H91.0854V42.5H85.7282V37.1429ZM85.7282 42.5H91.0854V47.8571H85.7282V42.5ZM91.0854 42.5H96.4425V47.8571H91.0854V42.5ZM96.4425 37.1429H101.8V42.5H96.4425V37.1429ZM101.8 37.1429H107.157V42.5H101.8V37.1429ZM107.157 37.1429H112.514V42.5H107.157V37.1429ZM107.157 42.5H112.514V47.8571H107.157V42.5ZM101.8 42.5H107.157V47.8571H101.8V42.5ZM112.514 42.5H117.871V47.8571H112.514V42.5ZM112.514 47.8571H117.871V53.2143H112.514V47.8571ZM112.514 63.9286H117.871V69.2857H112.514V63.9286ZM112.514 69.2857H117.871V74.6429H112.514V69.2857ZM107.157 69.2857H112.514V74.6429H107.157V69.2857ZM107.157 63.9286H112.514V69.2857H107.157V63.9286ZM107.157 47.8571H112.514V53.2143H107.157V47.8571ZM101.8 69.2857H107.157V74.6429H101.8V69.2857ZM107.157 74.6429H112.514V80H107.157V74.6429ZM101.8 74.6429H107.157V80H101.8V74.6429ZM96.4425 74.6429H101.8V80H96.4425V74.6429ZM91.0854 74.6429H96.4425V80H91.0854V74.6429ZM85.7282 74.6429H91.0854V80H85.7282V74.6429ZM85.7282 69.2857H91.0854V74.6429H85.7282V69.2857ZM91.0854 69.2857H96.4425V74.6429H91.0854V69.2857ZM85.7282 63.9286H91.0854V69.2857H85.7282V63.9286ZM80.3711 69.2857H85.7282V74.6429H80.3711V69.2857ZM80.3711 63.9286H85.7282V69.2857H80.3711V63.9286ZM80.3711 58.5714H85.7282V63.9286H80.3711V58.5714ZM80.3711 53.2143H85.7282V58.5714H80.3711V53.2143ZM80.3711 47.8571H85.7282V53.2143H80.3711V47.8571ZM80.3711 42.5H85.7282V47.8571H80.3711V42.5ZM85.7282 47.8571H91.0854V53.2143H85.7282V47.8571ZM85.7282 53.2143H91.0854V58.5714H85.7282V53.2143ZM85.7282 58.5714H91.0854V63.9286H85.7282V58.5714ZM96.4425 69.2857H101.8V74.6429H96.4425V69.2857ZM96.4425 42.5H101.8V47.8571H96.4425V42.5ZM123.242 42.5H128.599V47.8571H123.242V42.5ZM123.242 37.1429H128.599V42.5H123.242V37.1429ZM128.599 37.1429H133.956V42.5H128.599V37.1429ZM128.599 42.5H133.956V47.8571H128.599V42.5ZM128.599 47.8571H133.956V53.2143H128.599V47.8571ZM128.599 53.2143H133.956V58.5714H128.599V53.2143ZM128.599 58.5714H133.956V63.9286H128.599V58.5714ZM123.242 58.5714H128.599V63.9286H123.242V58.5714ZM123.242 53.2143H128.599V58.5714H123.242V53.2143ZM123.242 47.8571H128.599V53.2143H123.242V47.8571ZM123.242 63.9286H128.599V69.2857H123.242V63.9286ZM128.599 63.9286H133.956V69.2857H128.599V63.9286ZM128.599 69.2857H133.956V74.6429H128.599V69.2857ZM128.599 74.6429H133.956V80H128.599V74.6429ZM123.242 74.6429H128.599V80H123.242V74.6429ZM123.242 69.2857H128.599V74.6429H123.242V69.2857ZM150.028 74.6429H155.385V80H150.028V74.6429ZM155.385 74.6429H160.742V80H155.385V74.6429ZM155.385 69.2857H160.742V74.6429H155.385V69.2857ZM155.385 63.9286H160.742V69.2857H155.385V63.9286ZM155.385 58.5714H160.742V63.9286H155.385V58.5714ZM155.385 53.2143H160.742V58.5714H155.385V53.2143ZM155.385 47.8571H160.742V53.2143H155.385V47.8571ZM155.385 42.5H160.742V47.8571H155.385V42.5ZM150.028 53.2143H155.385V58.5714H150.028V53.2143ZM150.028 58.5714H155.385V63.9286H150.028V58.5714ZM150.028 63.9286H155.385V69.2857H150.028V63.9286ZM150.028 69.2857H155.385V74.6429H150.028V69.2857ZM150.028 47.8571H155.385V53.2143H150.028V47.8571ZM133.956 42.5H139.314V47.8571H133.956V42.5ZM139.314 42.5H144.671V47.8571H139.314V42.5ZM144.671 42.5H150.028V47.8571H144.671V42.5ZM144.671 37.1429H150.028V42.5H144.671V37.1429ZM150.028 37.1429H155.385V42.5H150.028V37.1429ZM150.028 42.5H155.385V47.8571H150.028V42.5ZM139.314 37.1429H144.671V42.5H139.314V37.1429ZM123.242 26.4286H128.599V31.7857H123.242V26.4286ZM128.599 26.4286H133.956V31.7857H128.599V26.4286ZM128.599 31.7857H133.956V37.1429H128.599V31.7857ZM123.242 31.7857H128.599V37.1429H123.242V31.7857ZM166.113 26.4286H176.828V37.1429H166.113V26.4286ZM166.113 42.5H176.828V80H166.113V42.5ZM203.655 69.2857H209.012V74.6429H203.655V69.2857ZM203.655 74.6429H209.012V80H203.655V74.6429ZM198.298 74.6429H203.655V80H198.298V74.6429ZM198.298 69.2857H203.655V74.6429H198.298V69.2857ZM192.941 74.6429H198.298V80H192.941V74.6429ZM192.941 69.2857H198.298V74.6429H192.941V69.2857ZM187.584 69.2857H192.941V74.6429H187.584V69.2857ZM187.584 63.9286H192.941V69.2857H187.584V63.9286ZM187.584 58.5714H192.941V63.9286H187.584V58.5714ZM187.584 53.2143H192.941V58.5714H187.584V53.2143ZM187.584 47.8571H192.941V53.2143H187.584V47.8571ZM187.584 42.5H192.941V47.8571H187.584V42.5ZM192.941 58.5714H198.298V63.9286H192.941V58.5714ZM192.941 63.9286H198.298V69.2857H192.941V63.9286ZM192.941 53.2143H198.298V58.5714H192.941V53.2143ZM192.941 47.8571H198.298V53.2143H192.941V47.8571ZM192.941 26.4286H198.298V31.7857H192.941V26.4286ZM192.941 31.7857H198.298V37.1429H192.941V31.7857ZM192.941 37.1429H198.298V42.5H192.941V37.1429ZM192.941 42.5H198.298V47.8571H192.941V42.5ZM187.584 37.1429H192.941V42.5H187.584V37.1429ZM182.227 42.5H187.584V47.8571H182.227V42.5ZM198.298 42.5H203.655V47.8571H198.298V42.5ZM203.655 42.5H209.012V47.8571H203.655V42.5ZM187.584 31.7857H192.941V37.1429H187.584V31.7857ZM182.227 47.8571H187.584V53.2143H182.227V47.8571ZM198.298 47.8571H203.655V53.2143H198.298V47.8571ZM203.655 47.8571H209.012V53.2143H203.655V47.8571ZM225.07 37.1429H230.427V42.5H225.07V37.1429ZM219.713 37.1429H225.07V42.5H219.713V37.1429ZM219.713 42.5H225.07V47.8571H219.713V42.5ZM225.07 42.5H230.427V47.8571H225.07V42.5ZM230.427 37.1429H235.784V42.5H230.427V37.1429ZM235.784 37.1429H241.141V42.5H235.784V37.1429ZM241.141 37.1429H246.498V42.5H241.141V37.1429ZM241.141 42.5H246.498V47.8571H241.141V42.5ZM235.784 42.5H241.141V47.8571H235.784V42.5ZM246.498 42.5H251.855V47.8571H246.498V42.5ZM246.498 47.8571H251.855V53.2143H246.498V47.8571ZM246.498 69.2857H251.855V74.6429H246.498V69.2857ZM241.141 69.2857H246.498V74.6429H241.141V69.2857ZM241.141 47.8571H246.498V53.2143H241.141V47.8571ZM235.784 69.2857H241.141V74.6429H235.784V69.2857ZM241.141 74.6429H246.498V80H241.141V74.6429ZM235.784 74.6429H241.141V80H235.784V74.6429ZM230.427 74.6429H235.784V80H230.427V74.6429ZM225.07 74.6429H230.427V80H225.07V74.6429ZM219.713 74.6429H225.07V80H219.713V74.6429ZM219.713 69.2857H225.07V74.6429H219.713V69.2857ZM225.07 69.2857H230.427V74.6429H225.07V69.2857ZM219.713 63.9286H225.07V69.2857H219.713V63.9286ZM214.355 69.2857H219.713V74.6429H214.355V69.2857ZM214.355 63.9286H219.713V69.2857H214.355V63.9286ZM214.355 58.5714H219.713V63.9286H214.355V58.5714ZM214.355 53.2143H219.713V58.5714H214.355V53.2143ZM214.355 47.8571H219.713V53.2143H214.355V47.8571ZM214.355 42.5H219.713V47.8571H214.355V42.5ZM219.713 47.8571H225.07V53.2143H219.713V47.8571ZM219.713 53.2143H225.07V58.5714H219.713V53.2143ZM219.713 58.5714H225.07V63.9286H219.713V58.5714ZM230.427 69.2857H235.784V74.6429H230.427V69.2857ZM230.427 42.5H235.784V47.8571H230.427V42.5ZM241.141 53.2143H246.498V58.5714H241.141V53.2143ZM246.498 53.2143H251.855V58.5714H246.498V53.2143ZM225.07 58.5714H230.427V63.9286H225.07V58.5714ZM230.427 58.5714H235.784V63.9286H230.427V58.5714ZM235.784 58.5714H241.141V63.9286H235.784V58.5714ZM241.141 58.5714H246.498V63.9286H241.141V58.5714ZM246.498 58.5714H251.855V63.9286H246.498V58.5714ZM235.784 53.2143H241.141V58.5714H235.784V53.2143ZM230.427 53.2143H235.784V58.5714H230.427V53.2143ZM225.07 53.2143H230.427V58.5714H225.07V53.2143ZM267.941 37.1429H273.298V42.5H267.941V37.1429ZM262.584 37.1429H267.941V42.5H262.584V37.1429ZM262.584 42.5H267.941V47.8571H262.584V42.5ZM267.941 42.5H273.298V47.8571H267.941V42.5ZM273.298 37.1429H278.655V42.5H273.298V37.1429ZM278.655 37.1429H284.012V42.5H278.655V37.1429ZM284.012 37.1429H289.369V42.5H284.012V37.1429ZM284.012 42.5H289.369V47.8571H284.012V42.5ZM278.655 42.5H284.012V47.8571H278.655V42.5ZM289.369 42.5H294.727V47.8571H289.369V42.5ZM289.369 47.8571H294.727V53.2143H289.369V47.8571ZM289.369 63.9286H294.727V69.2857H289.369V63.9286ZM289.369 69.2857H294.727V74.6429H289.369V69.2857ZM284.012 69.2857H289.369V74.6429H284.012V69.2857ZM284.012 63.9286H289.369V69.2857H284.012V63.9286ZM284.012 47.8571H289.369V53.2143H284.012V47.8571ZM278.655 69.2857H284.012V74.6429H278.655V69.2857ZM284.012 74.6429H289.369V80H284.012V74.6429ZM278.655 74.6429H284.012V80H278.655V74.6429ZM273.298 74.6429H278.655V80H273.298V74.6429ZM267.941 74.6429H273.298V80H267.941V74.6429ZM262.584 74.6429H267.941V80H262.584V74.6429ZM262.584 69.2857H267.941V74.6429H262.584V69.2857ZM267.941 69.2857H273.298V74.6429H267.941V69.2857ZM262.584 63.9286H267.941V69.2857H262.584V63.9286ZM257.227 69.2857H262.584V74.6429H257.227V69.2857ZM257.227 63.9286H262.584V69.2857H257.227V63.9286ZM257.227 58.5714H262.584V63.9286H257.227V58.5714ZM257.227 53.2143H262.584V58.5714H257.227V53.2143ZM257.227 47.8571H262.584V53.2143H257.227V47.8571ZM257.227 42.5H262.584V47.8571H257.227V42.5ZM262.584 47.8571H267.941V53.2143H262.584V47.8571ZM262.584 53.2143H267.941V58.5714H262.584V53.2143ZM262.584 58.5714H267.941V63.9286H262.584V58.5714ZM273.298 69.2857H278.655V74.6429H273.298V69.2857ZM273.298 42.5H278.655V47.8571H273.298V42.5ZM321.526 69.2857H326.883V74.6429H321.526V69.2857ZM321.526 74.6429H326.883V80H321.526V74.6429ZM316.169 74.6429H321.526V80H316.169V74.6429ZM316.169 69.2857H321.526V74.6429H316.169V69.2857ZM310.812 74.6429H316.169V80H310.812V74.6429ZM310.812 69.2857H316.169V74.6429H310.812V69.2857ZM305.455 69.2857H310.812V74.6429H305.455V69.2857ZM305.455 63.9286H310.812V69.2857H305.455V63.9286ZM305.455 58.5714H310.812V63.9286H305.455V58.5714ZM305.455 53.2143H310.812V58.5714H305.455V53.2143ZM305.455 47.8571H310.812V53.2143H305.455V47.8571ZM305.455 42.5H310.812V47.8571H305.455V42.5ZM310.812 58.5714H316.169V63.9286H310.812V58.5714ZM310.812 63.9286H316.169V69.2857H310.812V63.9286ZM310.812 53.2143H316.169V58.5714H310.812V53.2143ZM310.812 47.8571H316.169V53.2143H310.812V47.8571ZM310.812 26.4286H316.169V31.7857H310.812V26.4286ZM310.812 31.7857H316.169V37.1429H310.812V31.7857ZM310.812 37.1429H316.169V42.5H310.812V37.1429ZM310.812 42.5H316.169V47.8571H310.812V42.5ZM305.455 37.1429H310.812V42.5H305.455V37.1429ZM300.098 42.5H305.455V47.8571H300.098V42.5ZM316.169 42.5H321.526V47.8571H316.169V42.5ZM321.526 42.5H326.883V47.8571H321.526V42.5ZM305.455 31.7857H310.812V37.1429H305.455V31.7857ZM300.098 47.8571H305.455V53.2143H300.098V47.8571ZM316.169 47.8571H321.526V53.2143H316.169V47.8571ZM321.526 47.8571H326.883V53.2143H321.526V47.8571ZM337.584 26.4286H342.941V31.7857H337.584V26.4286ZM337.584 31.7857H342.941V37.1429H337.584V31.7857ZM332.227 31.7857H337.584V37.1429H332.227V31.7857ZM332.227 26.4286H337.584V31.7857H332.227V26.4286ZM337.584 37.1429H342.941V42.5H337.584V37.1429ZM332.227 42.5H337.584V47.8571H332.227V42.5ZM348.34 42.5H353.697V47.8571H348.34V42.5ZM353.697 47.8571H359.054V53.2143H353.697V47.8571ZM348.34 47.8571H353.697V53.2143H348.34V47.8571ZM348.34 53.2143H353.697V58.5714H348.34V53.2143ZM353.697 53.2143H359.054V58.5714H353.697V53.2143ZM353.697 58.5714H359.054V63.9286H353.697V58.5714ZM359.054 58.5714H364.411V63.9286H359.054V58.5714ZM364.411 58.5714H369.768V63.9286H364.411V58.5714ZM369.768 53.2143H375.126V58.5714H369.768V53.2143ZM364.411 53.2143H369.768V58.5714H364.411V53.2143ZM359.054 53.2143H364.411V58.5714H359.054V53.2143ZM369.768 58.5714H375.126V63.9286H369.768V58.5714ZM375.126 58.5714H380.483V63.9286H375.126V58.5714ZM375.126 63.9286H380.483V69.2857H375.126V63.9286ZM369.768 63.9286H375.126V69.2857H369.768V63.9286ZM369.768 69.2857H375.126V74.6429H369.768V69.2857ZM375.126 69.2857H380.483V74.6429H375.126V69.2857ZM369.768 74.6429H375.126V80H369.768V74.6429ZM364.411 69.2857H369.768V74.6429H364.411V69.2857ZM359.054 69.2857H364.411V74.6429H359.054V69.2857ZM353.697 69.2857H359.054V74.6429H353.697V69.2857ZM348.34 69.2857H353.697V74.6429H348.34V69.2857ZM353.697 74.6429H359.054V80H353.697V74.6429ZM359.054 74.6429H364.411V80H359.054V74.6429ZM364.411 74.6429H369.768V80H364.411V74.6429ZM375.126 42.5H380.483V47.8571H375.126V42.5ZM369.768 42.5H375.126V47.8571H369.768V42.5ZM369.768 37.1429H375.126V42.5H369.768V37.1429ZM364.411 37.1429H369.768V42.5H364.411V37.1429ZM359.054 37.1429H364.411V42.5H359.054V37.1429ZM353.697 37.1429H359.054V42.5H353.697V37.1429ZM353.697 42.5H359.054V47.8571H353.697V42.5ZM359.054 42.5H364.411V47.8571H359.054V42.5ZM364.411 42.5H369.768V47.8571H364.411V42.5ZM407.227 37.1429H412.584V42.5H407.227V37.1429ZM407.227 42.5H412.584V47.8571H407.227V42.5ZM407.227 47.8571H412.584V53.2143H407.227V47.8571ZM407.227 53.2143H412.584V58.5714H407.227V53.2143ZM407.227 58.5714H412.584V63.9286H407.227V58.5714ZM407.227 63.9286H412.584V69.2857H407.227V63.9286ZM412.584 63.9286H417.941V69.2857H412.584V63.9286ZM412.584 69.2857H417.941V74.6429H412.584V69.2857ZM417.941 69.2857H423.298V74.6429H417.941V69.2857ZM417.941 74.6429H423.298V80H417.941V74.6429ZM423.298 69.2857H428.655V74.6429H423.298V69.2857ZM428.655 63.9286H434.012V69.2857H428.655V63.9286ZM434.012 47.8571H439.369V53.2143H434.012V47.8571ZM428.655 37.1429H434.012V42.5H428.655V37.1429ZM434.012 37.1429H439.369V42.5H434.012V37.1429ZM434.012 42.5H439.369V47.8571H434.012V42.5ZM434.012 53.2143H439.369V58.5714H434.012V53.2143ZM434.012 58.5714H439.369V63.9286H434.012V58.5714ZM428.655 58.5714H434.012V63.9286H428.655V58.5714ZM428.655 53.2143H434.012V58.5714H428.655V53.2143ZM428.655 47.8571H434.012V53.2143H428.655V47.8571ZM428.655 42.5H434.012V47.8571H428.655V42.5ZM434.012 63.9286H439.369V69.2857H434.012V63.9286ZM444.727 69.2857H450.084V74.6429H444.727V69.2857ZM444.727 74.6429H450.084V80H444.727V74.6429ZM450.084 69.2857H455.441V74.6429H450.084V69.2857ZM450.084 63.9286H455.441V69.2857H450.084V63.9286ZM455.441 63.9286H460.798V69.2857H455.441V63.9286ZM455.441 58.5714H460.798V63.9286H455.441V58.5714ZM455.441 53.2143H460.798V58.5714H455.441V53.2143ZM455.441 47.8571H460.798V53.2143H455.441V47.8571ZM455.441 42.5H460.798V47.8571H455.441V42.5ZM455.441 37.1429H460.798V42.5H455.441V37.1429ZM412.584 42.5H417.941V47.8571H412.584V42.5ZM412.584 47.8571H417.941V53.2143H412.584V47.8571ZM412.584 53.2143H417.941V58.5714H412.584V53.2143ZM412.584 58.5714H417.941V63.9286H412.584V58.5714ZM412.584 37.1429H417.941V42.5H412.584V37.1429ZM450.084 37.1429H455.441V42.5H450.084V37.1429ZM450.084 42.5H455.441V47.8571H450.084V42.5ZM450.084 47.8571H455.441V53.2143H450.084V47.8571ZM450.084 53.2143H455.441V58.5714H450.084V53.2143ZM450.084 58.5714H455.441V63.9286H450.084V58.5714ZM423.298 74.6429H428.655V80H423.298V74.6429ZM428.655 69.2857H434.012V74.6429H428.655V69.2857ZM434.012 69.2857H439.369V74.6429H434.012V69.2857ZM439.369 69.2857H444.727V74.6429H439.369V69.2857ZM439.369 74.6429H444.727V80H439.369V74.6429ZM417.941 63.9286H423.298V69.2857H417.941V63.9286ZM444.727 63.9286H450.084V69.2857H444.727V63.9286ZM476.828 37.1429H482.185V42.5H476.828V37.1429ZM471.47 37.1429H476.828V42.5H471.47V37.1429ZM471.47 42.5H476.828V47.8571H471.47V42.5ZM476.828 42.5H482.185V47.8571H476.828V42.5ZM482.185 37.1429H487.542V42.5H482.185V37.1429ZM487.542 37.1429H492.899V42.5H487.542V37.1429ZM492.899 37.1429H498.256V42.5H492.899V37.1429ZM492.899 42.5H498.256V47.8571H492.899V42.5ZM487.542 42.5H492.899V47.8571H487.542V42.5ZM498.256 42.5H503.613V47.8571H498.256V42.5ZM498.256 47.8571H503.613V53.2143H498.256V47.8571ZM498.256 69.2857H503.613V74.6429H498.256V69.2857ZM492.899 69.2857H498.256V74.6429H492.899V69.2857ZM492.899 47.8571H498.256V53.2143H492.899V47.8571ZM487.542 69.2857H492.899V74.6429H487.542V69.2857ZM492.899 74.6429H498.256V80H492.899V74.6429ZM487.542 74.6429H492.899V80H487.542V74.6429ZM482.185 74.6429H487.542V80H482.185V74.6429ZM476.828 74.6429H482.185V80H476.828V74.6429ZM471.47 74.6429H476.828V80H471.47V74.6429ZM471.47 69.2857H476.828V74.6429H471.47V69.2857ZM476.828 69.2857H482.185V74.6429H476.828V69.2857ZM471.47 63.9286H476.828V69.2857H471.47V63.9286ZM466.113 69.2857H471.47V74.6429H466.113V69.2857ZM466.113 63.9286H471.47V69.2857H466.113V63.9286ZM466.113 58.5714H471.47V63.9286H466.113V58.5714ZM466.113 53.2143H471.47V58.5714H466.113V53.2143ZM466.113 47.8571H471.47V53.2143H466.113V47.8571ZM466.113 42.5H471.47V47.8571H466.113V42.5ZM471.47 47.8571H476.828V53.2143H471.47V47.8571ZM471.47 53.2143H476.828V58.5714H471.47V53.2143ZM471.47 58.5714H476.828V63.9286H471.47V58.5714ZM482.185 69.2857H487.542V74.6429H482.185V69.2857ZM482.185 42.5H487.542V47.8571H482.185V42.5ZM492.899 53.2143H498.256V58.5714H492.899V53.2143ZM498.256 53.2143H503.613V58.5714H498.256V53.2143ZM476.828 58.5714H482.185V63.9286H476.828V58.5714ZM482.185 58.5714H487.542V63.9286H482.185V58.5714ZM487.542 58.5714H492.899V63.9286H487.542V58.5714ZM492.899 58.5714H498.256V63.9286H492.899V58.5714ZM498.256 58.5714H503.613V63.9286H498.256V58.5714ZM487.542 53.2143H492.899V58.5714H487.542V53.2143ZM482.185 53.2143H487.542V58.5714H482.185V53.2143ZM476.828 53.2143H482.185V58.5714H476.828V53.2143ZM508.984 42.5H514.342V47.8571H508.984V42.5ZM508.984 37.1429H514.342V42.5H508.984V37.1429ZM514.342 37.1429H519.699V42.5H514.342V37.1429ZM514.342 42.5H519.699V47.8571H514.342V42.5ZM514.342 47.8571H519.699V53.2143H514.342V47.8571ZM514.342 53.2143H519.699V58.5714H514.342V53.2143ZM514.342 58.5714H519.699V63.9286H514.342V58.5714ZM508.984 58.5714H514.342V63.9286H508.984V58.5714ZM508.984 53.2143H514.342V58.5714H508.984V53.2143ZM508.984 47.8571H514.342V53.2143H508.984V47.8571ZM508.984 63.9286H514.342V69.2857H508.984V63.9286ZM514.342 63.9286H519.699V69.2857H514.342V63.9286ZM514.342 69.2857H519.699V74.6429H514.342V69.2857ZM514.342 74.6429H519.699V80H514.342V74.6429ZM508.984 74.6429H514.342V80H508.984V74.6429ZM508.984 69.2857H514.342V74.6429H508.984V69.2857ZM535.77 74.6429H541.127V80H535.77V74.6429ZM541.127 69.2857H546.484V74.6429H541.127V69.2857ZM541.127 63.9286H546.484V69.2857H541.127V63.9286ZM541.127 58.5714H546.484V63.9286H541.127V58.5714ZM541.127 53.2143H546.484V58.5714H541.127V53.2143ZM541.127 47.8571H546.484V53.2143H541.127V47.8571ZM541.127 42.5H546.484V47.8571H541.127V42.5ZM535.77 53.2143H541.127V58.5714H535.77V53.2143ZM535.77 58.5714H541.127V63.9286H535.77V58.5714ZM535.77 63.9286H541.127V69.2857H535.77V63.9286ZM535.77 69.2857H541.127V74.6429H535.77V69.2857ZM535.77 47.8571H541.127V53.2143H535.77V47.8571ZM519.699 42.5H525.056V47.8571H519.699V42.5ZM525.056 42.5H530.413V47.8571H525.056V42.5ZM530.413 42.5H535.77V47.8571H530.413V42.5ZM530.413 37.1429H535.77V42.5H530.413V37.1429ZM535.77 37.1429H541.127V42.5H535.77V37.1429ZM535.77 42.5H541.127V47.8571H535.77V42.5ZM525.056 37.1429H530.413V42.5H525.056V37.1429ZM508.984 26.4286H514.342V31.7857H508.984V26.4286ZM514.342 26.4286H519.699V31.7857H514.342V26.4286ZM514.342 31.7857H519.699V37.1429H514.342V31.7857ZM508.984 31.7857H514.342V37.1429H508.984V31.7857ZM519.699 74.6429H525.056V80H519.699V74.6429ZM525.056 74.6429H530.413V80H525.056V74.6429ZM530.413 74.6429H535.77V80H530.413V74.6429ZM530.413 69.2857H535.77V74.6429H530.413V69.2857ZM525.056 69.2857H530.413V74.6429H525.056V69.2857ZM519.699 69.2857H525.056V74.6429H519.699V69.2857ZM551.855 42.5H557.213V47.8571H551.855V42.5ZM557.213 47.8571H562.57V53.2143H557.213V47.8571ZM551.855 47.8571H557.213V53.2143H551.855V47.8571ZM551.855 53.2143H557.213V58.5714H551.855V53.2143ZM557.213 53.2143H562.57V58.5714H557.213V53.2143ZM557.213 58.5714H562.57V63.9286H557.213V58.5714ZM562.57 58.5714H567.927V63.9286H562.57V58.5714ZM567.927 58.5714H573.284V63.9286H567.927V58.5714ZM573.284 53.2143H578.641V58.5714H573.284V53.2143ZM567.927 53.2143H573.284V58.5714H567.927V53.2143ZM562.57 53.2143H567.927V58.5714H562.57V53.2143ZM573.284 58.5714H578.641V63.9286H573.284V58.5714ZM578.641 58.5714H583.998V63.9286H578.641V58.5714ZM578.641 63.9286H583.998V69.2857H578.641V63.9286ZM573.284 63.9286H578.641V69.2857H573.284V63.9286ZM573.284 69.2857H578.641V74.6429H573.284V69.2857ZM578.641 69.2857H583.998V74.6429H578.641V69.2857ZM573.284 74.6429H578.641V80H573.284V74.6429ZM567.927 69.2857H573.284V74.6429H567.927V69.2857ZM562.57 69.2857H567.927V74.6429H562.57V69.2857ZM557.213 69.2857H562.57V74.6429H557.213V69.2857ZM551.855 69.2857H557.213V74.6429H551.855V69.2857ZM557.213 74.6429H562.57V80H557.213V74.6429ZM562.57 74.6429H567.927V80H562.57V74.6429ZM567.927 74.6429H573.284V80H567.927V74.6429ZM578.641 42.5H583.998V47.8571H578.641V42.5ZM573.284 42.5H578.641V47.8571H573.284V42.5ZM573.284 37.1429H578.641V42.5H573.284V37.1429ZM567.927 37.1429H573.284V42.5H567.927V37.1429ZM562.57 37.1429H567.927V42.5H562.57V37.1429ZM557.213 37.1429H562.57V42.5H557.213V37.1429ZM557.213 42.5H562.57V47.8571H557.213V42.5ZM562.57 42.5H567.927V47.8571H562.57V42.5ZM567.927 42.5H573.284V47.8571H567.927V42.5ZM589.355 26.4286H600.07V37.1429H589.355V26.4286ZM589.355 42.5H600.07V80H589.355V42.5ZM626.897 69.2857H632.254V74.6429H626.897V69.2857ZM626.897 74.6429H632.254V80H626.897V74.6429ZM621.54 74.6429H626.897V80H621.54V74.6429ZM621.54 69.2857H626.897V74.6429H621.54V69.2857ZM616.183 74.6429H621.54V80H616.183V74.6429ZM616.183 69.2857H621.54V74.6429H616.183V69.2857ZM610.826 69.2857H616.183V74.6429H610.826V69.2857ZM610.826 63.9286H616.183V69.2857H610.826V63.9286ZM610.826 58.5714H616.183V63.9286H610.826V58.5714ZM610.826 53.2143H616.183V58.5714H610.826V53.2143ZM610.826 47.8571H616.183V53.2143H610.826V47.8571ZM610.826 42.5H616.183V47.8571H610.826V42.5ZM616.183 58.5714H621.54V63.9286H616.183V58.5714ZM616.183 63.9286H621.54V69.2857H616.183V63.9286ZM616.183 53.2143H621.54V58.5714H616.183V53.2143ZM616.183 47.8571H621.54V53.2143H616.183V47.8571ZM616.183 26.4286H621.54V31.7857H616.183V26.4286ZM616.183 31.7857H621.54V37.1429H616.183V31.7857ZM616.183 37.1429H621.54V42.5H616.183V37.1429ZM616.183 42.5H621.54V47.8571H616.183V42.5ZM610.826 37.1429H616.183V42.5H610.826V37.1429ZM605.469 42.5H610.826V47.8571H605.469V42.5ZM621.54 42.5H626.897V47.8571H621.54V42.5ZM626.897 42.5H632.254V47.8571H626.897V42.5ZM610.826 31.7857H616.183V37.1429H610.826V31.7857ZM605.469 47.8571H610.826V53.2143H605.469V47.8571ZM621.54 47.8571H626.897V53.2143H621.54V47.8571ZM626.897 47.8571H632.254V53.2143H626.897V47.8571ZM648.312 37.1429H653.669V42.5H648.312V37.1429ZM642.955 37.1429H648.312V42.5H642.955V37.1429ZM642.955 42.5H648.312V47.8571H642.955V42.5ZM648.312 42.5H653.669V47.8571H648.312V42.5ZM653.669 37.1429H659.026V42.5H653.669V37.1429ZM659.026 37.1429H664.383V42.5H659.026V37.1429ZM664.383 37.1429H669.741V42.5H664.383V37.1429ZM664.383 42.5H669.741V47.8571H664.383V42.5ZM659.026 42.5H664.383V47.8571H659.026V42.5ZM669.741 42.5H675.098V47.8571H669.741V42.5ZM669.741 47.8571H675.098V53.2143H669.741V47.8571ZM669.741 69.2857H675.098V74.6429H669.741V69.2857ZM664.383 69.2857H669.741V74.6429H664.383V69.2857ZM664.383 47.8571H669.741V53.2143H664.383V47.8571ZM659.026 69.2857H664.383V74.6429H659.026V69.2857ZM664.383 74.6429H669.741V80H664.383V74.6429ZM659.026 74.6429H664.383V80H659.026V74.6429ZM653.669 74.6429H659.026V80H653.669V74.6429ZM648.312 74.6429H653.669V80H648.312V74.6429ZM642.955 74.6429H648.312V80H642.955V74.6429ZM642.955 69.2857H648.312V74.6429H642.955V69.2857ZM648.312 69.2857H653.669V74.6429H648.312V69.2857ZM642.955 63.9286H648.312V69.2857H642.955V63.9286ZM637.598 69.2857H642.955V74.6429H637.598V69.2857ZM637.598 63.9286H642.955V69.2857H637.598V63.9286ZM637.598 58.5714H642.955V63.9286H637.598V58.5714ZM637.598 53.2143H642.955V58.5714H637.598V53.2143ZM637.598 47.8571H642.955V53.2143H637.598V47.8571ZM637.598 42.5H642.955V47.8571H637.598V42.5ZM642.955 47.8571H648.312V53.2143H642.955V47.8571ZM642.955 53.2143H648.312V58.5714H642.955V53.2143ZM642.955 58.5714H648.312V63.9286H642.955V58.5714ZM653.669 69.2857H659.026V74.6429H653.669V69.2857ZM653.669 42.5H659.026V47.8571H653.669V42.5ZM664.383 53.2143H669.741V58.5714H664.383V53.2143ZM669.741 53.2143H675.098V58.5714H669.741V53.2143ZM648.312 58.5714H653.669V63.9286H648.312V58.5714ZM653.669 58.5714H659.026V63.9286H653.669V58.5714ZM659.026 58.5714H664.383V63.9286H659.026V58.5714ZM664.383 58.5714H669.741V63.9286H664.383V58.5714ZM669.741 58.5714H675.098V63.9286H669.741V58.5714ZM659.026 53.2143H664.383V58.5714H659.026V53.2143ZM653.669 53.2143H659.026V58.5714H653.669V53.2143ZM648.312 53.2143H653.669V58.5714H648.312V53.2143Z" fill="white"/>
</g>
<defs>
<clipPath id="clip0_98_3">
<rect width="681" height="107" fill="white"/>
</clipPath>
</defs>
</svg>
