<svg width="386" height="214" viewBox="0 0 386 214" fill="none" xmlns="http://www.w3.org/2000/svg">
<g clip-path="url(#clip0_98_7)">
<path d="M10.7143 31.7857H16.0714V37.1429H10.7143V31.7857ZM16.0714 31.7857H21.4286V37.1429H16.0714V31.7857ZM16.0714 26.4286H21.4286V31.7857H16.0714V26.4286ZM21.4286 31.7857H26.7857V37.1429H21.4286V31.7857ZM21.4286 37.1429H26.7857V42.5H21.4286V37.1429ZM26.7857 37.1429H32.1429V42.5H26.7857V37.1429ZM16.0714 37.1429H21.4286V42.5H16.0714V37.1429ZM10.7143 37.1429H16.0714V42.5H10.7143V37.1429ZM5.35714 37.1429H10.7143V42.5H5.35714V37.1429ZM5.35714 42.5H10.7143V47.8571H5.35714V42.5ZM0 42.5H5.35714V47.8571H0V42.5ZM10.7143 42.5H16.0714V47.8571H10.7143V42.5ZM5.35714 47.8571H10.7143V53.2143H5.35714V47.8571ZM5.35714 53.2143H10.7143V58.5714H5.35714V53.2143ZM5.35714 58.5714H10.7143V63.9286H5.35714V58.5714ZM10.7143 58.5714H16.0714V63.9286H10.7143V58.5714ZM16.0714 58.5714H21.4286V63.9286H16.0714V58.5714ZM21.4286 58.5714H26.7857V63.9286H21.4286V58.5714ZM26.7857 58.5714H32.1429V63.9286H26.7857V58.5714ZM32.1429 58.5714H37.5V63.9286H32.1429V58.5714ZM32.1429 53.2143H37.5V58.5714H32.1429V53.2143ZM32.1429 47.8571H37.5V53.2143H32.1429V47.8571ZM32.1429 42.5H37.5V47.8571H32.1429V42.5ZM26.7857 42.5H32.1429V47.8571H26.7857V42.5ZM21.4286 42.5H26.7857V47.8571H21.4286V42.5ZM26.7857 47.8571H32.1429V53.2143H26.7857V47.8571ZM26.7857 53.2143H32.1429V58.5714H26.7857V53.2143ZM26.7857 63.9286H32.1429V69.2857H26.7857V63.9286ZM32.1429 63.9286H37.5V69.2857H32.1429V63.9286ZM32.1429 69.2857H37.5V74.6429H32.1429V69.2857ZM32.1429 74.6429H37.5V80H32.1429V74.6429ZM26.7857 74.6429H32.1429V80H26.7857V74.6429ZM26.7857 69.2857H32.1429V74.6429H26.7857V69.2857ZM21.4286 63.9286H26.7857V69.2857H21.4286V63.9286ZM16.0714 63.9286H21.4286V69.2857H16.0714V63.9286ZM10.7143 63.9286H16.0714V69.2857H10.7143V63.9286ZM5.35714 63.9286H10.7143V69.2857H5.35714V63.9286ZM5.35714 69.2857H10.7143V74.6429H5.35714V69.2857ZM5.35714 74.6429H10.7143V80H5.35714V74.6429ZM0 74.6429H5.35714V80H0V74.6429ZM0 69.2857H5.35714V74.6429H0V69.2857ZM0 63.9286H5.35714V69.2857H0V63.9286ZM0 58.5714H5.35714V63.9286H0V58.5714ZM0 53.2143H5.35714V58.5714H0V53.2143ZM0 47.8571H5.35714V53.2143H0V47.8571ZM42.8711 42.5H48.2282V47.8571H42.8711V42.5ZM42.8711 37.1429H48.2282V42.5H42.8711V37.1429ZM48.2282 37.1429H53.5854V42.5H48.2282V37.1429ZM48.2282 42.5H53.5854V47.8571H48.2282V42.5ZM48.2282 47.8571H53.5854V53.2143H48.2282V47.8571ZM48.2282 53.2143H53.5854V58.5714H48.2282V53.2143ZM48.2282 58.5714H53.5854V63.9286H48.2282V58.5714ZM42.8711 58.5714H48.2282V63.9286H42.8711V58.5714ZM42.8711 53.2143H48.2282V58.5714H42.8711V53.2143ZM42.8711 47.8571H48.2282V53.2143H42.8711V47.8571ZM42.8711 63.9286H48.2282V69.2857H42.8711V63.9286ZM48.2282 63.9286H53.5854V69.2857H48.2282V63.9286ZM48.2282 69.2857H53.5854V74.6429H48.2282V69.2857ZM48.2282 74.6429H53.5854V80H48.2282V74.6429ZM42.8711 74.6429H48.2282V80H42.8711V74.6429ZM42.8711 69.2857H48.2282V74.6429H42.8711V69.2857ZM53.5854 42.5H58.9425V47.8571H53.5854V42.5ZM58.9425 42.5H64.2997V47.8571H58.9425V42.5ZM64.2997 42.5H69.6568V47.8571H64.2997V42.5ZM64.2997 37.1429H69.6568V42.5H64.2997V37.1429ZM58.9425 37.1429H64.2997V42.5H58.9425V37.1429ZM53.5854 47.8571H58.9425V53.2143H53.5854V47.8571ZM69.6568 42.5H75.014V47.8571H69.6568V42.5ZM64.2997 47.8571H69.6568V53.2143H64.2997V47.8571ZM91.0854 37.1429H96.4425V42.5H91.0854V37.1429ZM85.7282 37.1429H91.0854V42.5H85.7282V37.1429ZM85.7282 42.5H91.0854V47.8571H85.7282V42.5ZM91.0854 42.5H96.4425V47.8571H91.0854V42.5ZM96.4425 37.1429H101.8V42.5H96.4425V37.1429ZM101.8 37.1429H107.157V42.5H101.8V37.1429ZM107.157 37.1429H112.514V42.5H107.157V37.1429ZM107.157 42.5H112.514V47.8571H107.157V42.5ZM101.8 42.5H107.157V47.8571H101.8V42.5ZM112.514 42.5H117.871V47.8571H112.514V42.5ZM112.514 47.8571H117.871V53.2143H112.514V47.8571ZM112.514 63.9286H117.871V69.2857H112.514V63.9286ZM112.514 69.2857H117.871V74.6429H112.514V69.2857ZM107.157 69.2857H112.514V74.6429H107.157V69.2857ZM107.157 63.9286H112.514V69.2857H107.157V63.9286ZM107.157 47.8571H112.514V53.2143H107.157V47.8571ZM101.8 69.2857H107.157V74.6429H101.8V69.2857ZM107.157 74.6429H112.514V80H107.157V74.6429ZM101.8 74.6429H107.157V80H101.8V74.6429ZM96.4425 74.6429H101.8V80H96.4425V74.6429ZM91.0854 74.6429H96.4425V80H91.0854V74.6429ZM85.7282 74.6429H91.0854V80H85.7282V74.6429ZM85.7282 69.2857H91.0854V74.6429H85.7282V69.2857ZM91.0854 69.2857H96.4425V74.6429H91.0854V69.2857ZM85.7282 63.9286H91.0854V69.2857H85.7282V63.9286ZM80.3711 69.2857H85.7282V74.6429H80.3711V69.2857ZM80.3711 63.9286H85.7282V69.2857H80.3711V63.9286ZM80.3711 58.5714H85.7282V63.9286H80.3711V58.5714ZM80.3711 53.2143H85.7282V58.5714H80.3711V53.2143ZM80.3711 47.8571H85.7282V53.2143H80.3711V47.8571ZM80.3711 42.5H85.7282V47.8571H80.3711V42.5ZM85.7282 47.8571H91.0854V53.2143H85.7282V47.8571ZM85.7282 53.2143H91.0854V58.5714H85.7282V53.2143ZM85.7282 58.5714H91.0854V63.9286H85.7282V58.5714ZM96.4425 69.2857H101.8V74.6429H96.4425V69.2857ZM96.4425 42.5H101.8V47.8571H96.4425V42.5ZM123.242 42.5H128.599V47.8571H123.242V42.5ZM123.242 37.1429H128.599V42.5H123.242V37.1429ZM128.599 37.1429H133.956V42.5H128.599V37.1429ZM128.599 42.5H133.956V47.8571H128.599V42.5ZM128.599 47.8571H133.956V53.2143H128.599V47.8571ZM128.599 53.2143H133.956V58.5714H128.599V53.2143ZM128.599 58.5714H133.956V63.9286H128.599V58.5714ZM123.242 58.5714H128.599V63.9286H123.242V58.5714ZM123.242 53.2143H128.599V58.5714H123.242V53.2143ZM123.242 47.8571H128.599V53.2143H123.242V47.8571ZM123.242 63.9286H128.599V69.2857H123.242V63.9286ZM128.599 63.9286H133.956V69.2857H128.599V63.9286ZM128.599 69.2857H133.956V74.6429H128.599V69.2857ZM128.599 74.6429H133.956V80H128.599V74.6429ZM123.242 74.6429H128.599V80H123.242V74.6429ZM123.242 69.2857H128.599V74.6429H123.242V69.2857ZM150.028 74.6429H155.385V80H150.028V74.6429ZM155.385 74.6429H160.742V80H155.385V74.6429ZM155.385 69.2857H160.742V74.6429H155.385V69.2857ZM155.385 63.9286H160.742V69.2857H155.385V63.9286ZM155.385 58.5714H160.742V63.9286H155.385V58.5714ZM155.385 53.2143H160.742V58.5714H155.385V53.2143ZM155.385 47.8571H160.742V53.2143H155.385V47.8571ZM155.385 42.5H160.742V47.8571H155.385V42.5ZM150.028 53.2143H155.385V58.5714H150.028V53.2143ZM150.028 58.5714H155.385V63.9286H150.028V58.5714ZM150.028 63.9286H155.385V69.2857H150.028V63.9286ZM150.028 69.2857H155.385V74.6429H150.028V69.2857ZM150.028 47.8571H155.385V53.2143H150.028V47.8571ZM133.956 42.5H139.314V47.8571H133.956V42.5ZM139.314 42.5H144.671V47.8571H139.314V42.5ZM144.671 42.5H150.028V47.8571H144.671V42.5ZM144.671 37.1429H150.028V42.5H144.671V37.1429ZM150.028 37.1429H155.385V42.5H150.028V37.1429ZM150.028 42.5H155.385V47.8571H150.028V42.5ZM139.314 37.1429H144.671V42.5H139.314V37.1429ZM123.242 26.4286H128.599V31.7857H123.242V26.4286ZM128.599 26.4286H133.956V31.7857H128.599V26.4286ZM128.599 31.7857H133.956V37.1429H128.599V31.7857ZM123.242 31.7857H128.599V37.1429H123.242V31.7857ZM166.113 26.4286H176.828V37.1429H166.113V26.4286ZM166.113 42.5H176.828V80H166.113V42.5ZM203.655 69.2857H209.012V74.6429H203.655V69.2857ZM203.655 74.6429H209.012V80H203.655V74.6429ZM198.298 74.6429H203.655V80H198.298V74.6429ZM198.298 69.2857H203.655V74.6429H198.298V69.2857ZM192.941 74.6429H198.298V80H192.941V74.6429ZM192.941 69.2857H198.298V74.6429H192.941V69.2857ZM187.584 69.2857H192.941V74.6429H187.584V69.2857ZM187.584 63.9286H192.941V69.2857H187.584V63.9286ZM187.584 58.5714H192.941V63.9286H187.584V58.5714ZM187.584 53.2143H192.941V58.5714H187.584V53.2143ZM187.584 47.8571H192.941V53.2143H187.584V47.8571ZM187.584 42.5H192.941V47.8571H187.584V42.5ZM192.941 58.5714H198.298V63.9286H192.941V58.5714ZM192.941 63.9286H198.298V69.2857H192.941V63.9286ZM192.941 53.2143H198.298V58.5714H192.941V53.2143ZM192.941 47.8571H198.298V53.2143H192.941V47.8571ZM192.941 26.4286H198.298V31.7857H192.941V26.4286ZM192.941 31.7857H198.298V37.1429H192.941V31.7857ZM192.941 37.1429H198.298V42.5H192.941V37.1429ZM192.941 42.5H198.298V47.8571H192.941V42.5ZM187.584 37.1429H192.941V42.5H187.584V37.1429ZM182.227 42.5H187.584V47.8571H182.227V42.5ZM198.298 42.5H203.655V47.8571H198.298V42.5ZM203.655 42.5H209.012V47.8571H203.655V42.5ZM187.584 31.7857H192.941V37.1429H187.584V31.7857ZM182.227 47.8571H187.584V53.2143H182.227V47.8571ZM198.298 47.8571H203.655V53.2143H198.298V47.8571ZM203.655 47.8571H209.012V53.2143H203.655V47.8571ZM225.07 37.1429H230.427V42.5H225.07V37.1429ZM219.713 37.1429H225.07V42.5H219.713V37.1429ZM219.713 42.5H225.07V47.8571H219.713V42.5ZM225.07 42.5H230.427V47.8571H225.07V42.5ZM230.427 37.1429H235.784V42.5H230.427V37.1429ZM235.784 37.1429H241.141V42.5H235.784V37.1429ZM241.141 37.1429H246.498V42.5H241.141V37.1429ZM241.141 42.5H246.498V47.8571H241.141V42.5ZM235.784 42.5H241.141V47.8571H235.784V42.5ZM246.498 42.5H251.855V47.8571H246.498V42.5ZM246.498 47.8571H251.855V53.2143H246.498V47.8571ZM246.498 69.2857H251.855V74.6429H246.498V69.2857ZM241.141 69.2857H246.498V74.6429H241.141V69.2857ZM241.141 47.8571H246.498V53.2143H241.141V47.8571ZM235.784 69.2857H241.141V74.6429H235.784V69.2857ZM241.141 74.6429H246.498V80H241.141V74.6429ZM235.784 74.6429H241.141V80H235.784V74.6429ZM230.427 74.6429H235.784V80H230.427V74.6429ZM225.07 74.6429H230.427V80H225.07V74.6429ZM219.713 74.6429H225.07V80H219.713V74.6429ZM219.713 69.2857H225.07V74.6429H219.713V69.2857ZM225.07 69.2857H230.427V74.6429H225.07V69.2857ZM219.713 63.9286H225.07V69.2857H219.713V63.9286ZM214.355 69.2857H219.713V74.6429H214.355V69.2857ZM214.355 63.9286H219.713V69.2857H214.355V63.9286ZM214.355 58.5714H219.713V63.9286H214.355V58.5714ZM214.355 53.2143H219.713V58.5714H214.355V53.2143ZM214.355 47.8571H219.713V53.2143H214.355V47.8571ZM214.355 42.5H219.713V47.8571H214.355V42.5ZM219.713 47.8571H225.07V53.2143H219.713V47.8571ZM219.713 53.2143H225.07V58.5714H219.713V53.2143ZM219.713 58.5714H225.07V63.9286H219.713V58.5714ZM230.427 69.2857H235.784V74.6429H230.427V69.2857ZM230.427 42.5H235.784V47.8571H230.427V42.5ZM241.141 53.2143H246.498V58.5714H241.141V53.2143ZM246.498 53.2143H251.855V58.5714H246.498V53.2143ZM225.07 58.5714H230.427V63.9286H225.07V58.5714ZM230.427 58.5714H235.784V63.9286H230.427V58.5714ZM235.784 58.5714H241.141V63.9286H235.784V58.5714ZM241.141 58.5714H246.498V63.9286H241.141V58.5714ZM246.498 58.5714H251.855V63.9286H246.498V58.5714ZM235.784 53.2143H241.141V58.5714H235.784V53.2143ZM230.427 53.2143H235.784V58.5714H230.427V53.2143ZM225.07 53.2143H230.427V58.5714H225.07V53.2143ZM267.941 37.1429H273.298V42.5H267.941V37.1429ZM262.584 37.1429H267.941V42.5H262.584V37.1429ZM262.584 42.5H267.941V47.8571H262.584V42.5ZM267.941 42.5H273.298V47.8571H267.941V42.5ZM273.298 37.1429H278.655V42.5H273.298V37.1429ZM278.655 37.1429H284.012V42.5H278.655V37.1429ZM284.012 37.1429H289.369V42.5H284.012V37.1429ZM284.012 42.5H289.369V47.8571H284.012V42.5ZM278.655 42.5H284.012V47.8571H278.655V42.5ZM289.369 42.5H294.727V47.8571H289.369V42.5ZM289.369 47.8571H294.727V53.2143H289.369V47.8571ZM289.369 63.9286H294.727V69.2857H289.369V63.9286ZM289.369 69.2857H294.727V74.6429H289.369V69.2857ZM284.012 69.2857H289.369V74.6429H284.012V69.2857ZM284.012 63.9286H289.369V69.2857H284.012V63.9286ZM284.012 47.8571H289.369V53.2143H284.012V47.8571ZM278.655 69.2857H284.012V74.6429H278.655V69.2857ZM284.012 74.6429H289.369V80H284.012V74.6429ZM278.655 74.6429H284.012V80H278.655V74.6429ZM273.298 74.6429H278.655V80H273.298V74.6429ZM267.941 74.6429H273.298V80H267.941V74.6429ZM262.584 74.6429H267.941V80H262.584V74.6429ZM262.584 69.2857H267.941V74.6429H262.584V69.2857ZM267.941 69.2857H273.298V74.6429H267.941V69.2857ZM262.584 63.9286H267.941V69.2857H262.584V63.9286ZM257.227 69.2857H262.584V74.6429H257.227V69.2857ZM257.227 63.9286H262.584V69.2857H257.227V63.9286ZM257.227 58.5714H262.584V63.9286H257.227V58.5714ZM257.227 53.2143H262.584V58.5714H257.227V53.2143ZM257.227 47.8571H262.584V53.2143H257.227V47.8571ZM257.227 42.5H262.584V47.8571H257.227V42.5ZM262.584 47.8571H267.941V53.2143H262.584V47.8571ZM262.584 53.2143H267.941V58.5714H262.584V53.2143ZM262.584 58.5714H267.941V63.9286H262.584V58.5714ZM273.298 69.2857H278.655V74.6429H273.298V69.2857ZM273.298 42.5H278.655V47.8571H273.298V42.5ZM321.526 69.2857H326.883V74.6429H321.526V69.2857ZM321.526 74.6429H326.883V80H321.526V74.6429ZM316.169 74.6429H321.526V80H316.169V74.6429ZM316.169 69.2857H321.526V74.6429H316.169V69.2857ZM310.812 74.6429H316.169V80H310.812V74.6429ZM310.812 69.2857H316.169V74.6429H310.812V69.2857ZM305.455 69.2857H310.812V74.6429H305.455V69.2857ZM305.455 63.9286H310.812V69.2857H305.455V63.9286ZM305.455 58.5714H310.812V63.9286H305.455V58.5714ZM305.455 53.2143H310.812V58.5714H305.455V53.2143ZM305.455 47.8571H310.812V53.2143H305.455V47.8571ZM305.455 42.5H310.812V47.8571H305.455V42.5ZM310.812 58.5714H316.169V63.9286H310.812V58.5714ZM310.812 63.9286H316.169V69.2857H310.812V63.9286ZM310.812 53.2143H316.169V58.5714H310.812V53.2143ZM310.812 47.8571H316.169V53.2143H310.812V47.8571ZM310.812 26.4286H316.169V31.7857H310.812V26.4286ZM310.812 31.7857H316.169V37.1429H310.812V31.7857ZM310.812 37.1429H316.169V42.5H310.812V37.1429ZM310.812 42.5H316.169V47.8571H310.812V42.5ZM305.455 37.1429H310.812V42.5H305.455V37.1429ZM300.098 42.5H305.455V47.8571H300.098V42.5ZM316.169 42.5H321.526V47.8571H316.169V42.5ZM321.526 42.5H326.883V47.8571H321.526V42.5ZM305.455 31.7857H310.812V37.1429H305.455V31.7857ZM300.098 47.8571H305.455V53.2143H300.098V47.8571ZM316.169 47.8571H321.526V53.2143H316.169V47.8571ZM321.526 47.8571H326.883V53.2143H321.526V47.8571ZM337.584 26.4286H342.941V31.7857H337.584V26.4286ZM337.584 31.7857H342.941V37.1429H337.584V31.7857ZM332.227 31.7857H337.584V37.1429H332.227V31.7857ZM332.227 26.4286H337.584V31.7857H332.227V26.4286ZM337.584 37.1429H342.941V42.5H337.584V37.1429ZM332.227 42.5H337.584V47.8571H332.227V42.5ZM348.34 42.5H353.697V47.8571H348.34V42.5ZM353.697 47.8571H359.054V53.2143H353.697V47.8571ZM348.34 47.8571H353.697V53.2143H348.34V47.8571ZM348.34 53.2143H353.697V58.5714H348.34V53.2143ZM353.697 53.2143H359.054V58.5714H353.697V53.2143ZM353.697 58.5714H359.054V63.9286H353.697V58.5714ZM359.054 58.5714H364.411V63.9286H359.054V58.5714ZM364.411 58.5714H369.768V63.9286H364.411V58.5714ZM369.768 53.2143H375.126V58.5714H369.768V53.2143ZM364.411 53.2143H369.768V58.5714H364.411V53.2143ZM359.054 53.2143H364.411V58.5714H359.054V53.2143ZM369.768 58.5714H375.126V63.9286H369.768V58.5714ZM375.126 58.5714H380.483V63.9286H375.126V58.5714ZM375.126 63.9286H380.483V69.2857H375.126V63.9286ZM369.768 63.9286H375.126V69.2857H369.768V63.9286ZM369.768 69.2857H375.126V74.6429H369.768V69.2857ZM375.126 69.2857H380.483V74.6429H375.126V69.2857ZM369.768 74.6429H375.126V80H369.768V74.6429ZM364.411 69.2857H369.768V74.6429H364.411V69.2857ZM359.054 69.2857H364.411V74.6429H359.054V69.2857ZM353.697 69.2857H359.054V74.6429H353.697V69.2857ZM348.34 69.2857H353.697V74.6429H348.34V69.2857ZM353.697 74.6429H359.054V80H353.697V74.6429ZM359.054 74.6429H364.411V80H359.054V74.6429ZM364.411 74.6429H369.768V80H364.411V74.6429ZM375.126 42.5H380.483V47.8571H375.126V42.5ZM369.768 42.5H375.126V47.8571H369.768V42.5ZM369.768 37.1429H375.126V42.5H369.768V37.1429ZM364.411 37.1429H369.768V42.5H364.411V37.1429ZM359.054 37.1429H364.411V42.5H359.054V37.1429ZM353.697 37.1429H359.054V42.5H353.697V37.1429ZM353.697 42.5H359.054V47.8571H353.697V42.5ZM359.054 42.5H364.411V47.8571H359.054V42.5ZM364.411 42.5H369.768V47.8571H364.411V42.5ZM0 144.143H5.35714V149.5H0V144.143ZM0 149.5H5.35714V154.857H0V149.5ZM0 154.857H5.35714V160.214H0V154.857ZM0 160.214H5.35714V165.571H0V160.214ZM0 165.571H5.35714V170.929H0V165.571ZM0 170.929H5.35714V176.286H0V170.929ZM5.35714 170.929H10.7143V176.286H5.35714V170.929ZM5.35714 176.286H10.7143V181.643H5.35714V176.286ZM10.7143 176.286H16.0714V181.643H10.7143V176.286ZM10.7143 181.643H16.0714V187H10.7143V181.643ZM16.0714 176.286H21.4286V181.643H16.0714V176.286ZM21.4286 170.929H26.7857V176.286H21.4286V170.929ZM26.7857 154.857H32.1429V160.214H26.7857V154.857ZM21.4286 144.143H26.7857V149.5H21.4286V144.143ZM26.7857 144.143H32.1429V149.5H26.7857V144.143ZM26.7857 149.5H32.1429V154.857H26.7857V149.5ZM26.7857 160.214H32.1429V165.571H26.7857V160.214ZM26.7857 165.571H32.1429V170.929H26.7857V165.571ZM21.4286 165.571H26.7857V170.929H21.4286V165.571ZM21.4286 160.214H26.7857V165.571H21.4286V160.214ZM21.4286 154.857H26.7857V160.214H21.4286V154.857ZM21.4286 149.5H26.7857V154.857H21.4286V149.5ZM26.7857 170.929H32.1429V176.286H26.7857V170.929ZM37.5 176.286H42.8571V181.643H37.5V176.286ZM37.5 181.643H42.8571V187H37.5V181.643ZM42.8571 176.286H48.2143V181.643H42.8571V176.286ZM42.8571 170.929H48.2143V176.286H42.8571V170.929ZM48.2143 170.929H53.5714V176.286H48.2143V170.929ZM48.2143 165.571H53.5714V170.929H48.2143V165.571ZM48.2143 160.214H53.5714V165.571H48.2143V160.214ZM48.2143 154.857H53.5714V160.214H48.2143V154.857ZM48.2143 149.5H53.5714V154.857H48.2143V149.5ZM48.2143 144.143H53.5714V149.5H48.2143V144.143ZM5.35714 149.5H10.7143V154.857H5.35714V149.5ZM5.35714 154.857H10.7143V160.214H5.35714V154.857ZM5.35714 160.214H10.7143V165.571H5.35714V160.214ZM5.35714 165.571H10.7143V170.929H5.35714V165.571ZM5.35714 144.143H10.7143V149.5H5.35714V144.143ZM42.8571 144.143H48.2143V149.5H42.8571V144.143ZM42.8571 149.5H48.2143V154.857H42.8571V149.5ZM42.8571 154.857H48.2143V160.214H42.8571V154.857ZM42.8571 160.214H48.2143V165.571H42.8571V160.214ZM42.8571 165.571H48.2143V170.929H42.8571V165.571ZM16.0714 181.643H21.4286V187H16.0714V181.643ZM21.4286 176.286H26.7857V181.643H21.4286V176.286ZM26.7857 176.286H32.1429V181.643H26.7857V176.286ZM32.1429 176.286H37.5V181.643H32.1429V176.286ZM32.1429 181.643H37.5V187H32.1429V181.643ZM10.7143 170.929H16.0714V176.286H10.7143V170.929ZM37.5 170.929H42.8571V176.286H37.5V170.929ZM69.601 144.143H74.9581V149.5H69.601V144.143ZM64.2439 144.143H69.601V149.5H64.2439V144.143ZM64.2439 149.5H69.601V154.857H64.2439V149.5ZM69.601 149.5H74.9581V154.857H69.601V149.5ZM74.9581 144.143H80.3153V149.5H74.9581V144.143ZM80.3153 144.143H85.6724V149.5H80.3153V144.143ZM85.6724 144.143H91.0296V149.5H85.6724V144.143ZM85.6724 149.5H91.0296V154.857H85.6724V149.5ZM80.3153 149.5H85.6724V154.857H80.3153V149.5ZM91.0296 149.5H96.3867V154.857H91.0296V149.5ZM91.0296 154.857H96.3867V160.214H91.0296V154.857ZM91.0296 176.286H96.3867V181.643H91.0296V176.286ZM85.6724 176.286H91.0296V181.643H85.6724V176.286ZM85.6724 154.857H91.0296V160.214H85.6724V154.857ZM80.3153 176.286H85.6724V181.643H80.3153V176.286ZM85.6724 181.643H91.0296V187H85.6724V181.643ZM80.3153 181.643H85.6724V187H80.3153V181.643ZM74.9581 181.643H80.3153V187H74.9581V181.643ZM69.601 181.643H74.9581V187H69.601V181.643ZM64.2439 181.643H69.601V187H64.2439V181.643ZM64.2439 176.286H69.601V181.643H64.2439V176.286ZM69.601 176.286H74.9581V181.643H69.601V176.286ZM64.2439 170.929H69.601V176.286H64.2439V170.929ZM58.8867 176.286H64.2439V181.643H58.8867V176.286ZM58.8867 170.929H64.2439V176.286H58.8867V170.929ZM58.8867 165.571H64.2439V170.929H58.8867V165.571ZM58.8867 160.214H64.2439V165.571H58.8867V160.214ZM58.8867 154.857H64.2439V160.214H58.8867V154.857ZM58.8867 149.5H64.2439V154.857H58.8867V149.5ZM64.2439 154.857H69.601V160.214H64.2439V154.857ZM64.2439 160.214H69.601V165.571H64.2439V160.214ZM64.2439 165.571H69.601V170.929H64.2439V165.571ZM74.9581 176.286H80.3153V181.643H74.9581V176.286ZM74.9581 149.5H80.3153V154.857H74.9581V149.5ZM85.6724 160.214H91.0296V165.571H85.6724V160.214ZM91.0296 160.214H96.3867V165.571H91.0296V160.214ZM69.601 165.571H74.9581V170.929H69.601V165.571ZM74.9581 165.571H80.3153V170.929H74.9581V165.571ZM80.3153 165.571H85.6724V170.929H80.3153V165.571ZM85.6724 165.571H91.0296V170.929H85.6724V165.571ZM91.0296 165.571H96.3867V170.929H91.0296V165.571ZM80.3153 160.214H85.6724V165.571H80.3153V160.214ZM74.9581 160.214H80.3153V165.571H74.9581V160.214ZM69.601 160.214H74.9581V165.571H69.601V160.214ZM101.758 149.5H107.115V154.857H101.758V149.5ZM101.758 144.143H107.115V149.5H101.758V144.143ZM107.115 144.143H112.472V149.5H107.115V144.143ZM107.115 149.5H112.472V154.857H107.115V149.5ZM107.115 154.857H112.472V160.214H107.115V154.857ZM107.115 160.214H112.472V165.571H107.115V160.214ZM107.115 165.571H112.472V170.929H107.115V165.571ZM101.758 165.571H107.115V170.929H101.758V165.571ZM101.758 160.214H107.115V165.571H101.758V160.214ZM101.758 154.857H107.115V160.214H101.758V154.857ZM101.758 170.929H107.115V176.286H101.758V170.929ZM107.115 170.929H112.472V176.286H107.115V170.929ZM107.115 176.286H112.472V181.643H107.115V176.286ZM107.115 181.643H112.472V187H107.115V181.643ZM101.758 181.643H107.115V187H101.758V181.643ZM101.758 176.286H107.115V181.643H101.758V176.286ZM128.544 181.643H133.901V187H128.544V181.643ZM133.901 176.286H139.258V181.643H133.901V176.286ZM133.901 170.929H139.258V176.286H133.901V170.929ZM133.901 165.571H139.258V170.929H133.901V165.571ZM133.901 160.214H139.258V165.571H133.901V160.214ZM133.901 154.857H139.258V160.214H133.901V154.857ZM133.901 149.5H139.258V154.857H133.901V149.5ZM128.544 160.214H133.901V165.571H128.544V160.214ZM128.544 165.571H133.901V170.929H128.544V165.571ZM128.544 170.929H133.901V176.286H128.544V170.929ZM128.544 176.286H133.901V181.643H128.544V176.286ZM128.544 154.857H133.901V160.214H128.544V154.857ZM112.472 149.5H117.829V154.857H112.472V149.5ZM117.829 149.5H123.186V154.857H117.829V149.5ZM123.186 149.5H128.544V154.857H123.186V149.5ZM123.186 144.143H128.544V149.5H123.186V144.143ZM128.544 144.143H133.901V149.5H128.544V144.143ZM128.544 149.5H133.901V154.857H128.544V149.5ZM117.829 144.143H123.186V149.5H117.829V144.143ZM101.758 133.429H107.115V138.786H101.758V133.429ZM107.115 133.429H112.472V138.786H107.115V133.429ZM107.115 138.786H112.472V144.143H107.115V138.786ZM101.758 138.786H107.115V144.143H101.758V138.786ZM112.472 181.643H117.829V187H112.472V181.643ZM117.829 181.643H123.186V187H117.829V181.643ZM123.186 181.643H128.544V187H123.186V181.643ZM123.186 176.286H128.544V181.643H123.186V176.286ZM117.829 176.286H123.186V181.643H117.829V176.286ZM112.472 176.286H117.829V181.643H112.472V176.286ZM144.629 149.5H149.986V154.857H144.629V149.5ZM149.986 154.857H155.343V160.214H149.986V154.857ZM144.629 154.857H149.986V160.214H144.629V154.857ZM144.629 160.214H149.986V165.571H144.629V160.214ZM149.986 160.214H155.343V165.571H149.986V160.214ZM149.986 165.571H155.343V170.929H149.986V165.571ZM155.343 165.571H160.7V170.929H155.343V165.571ZM160.7 165.571H166.057V170.929H160.7V165.571ZM166.057 160.214H171.415V165.571H166.057V160.214ZM160.7 160.214H166.057V165.571H160.7V160.214ZM155.343 160.214H160.7V165.571H155.343V160.214ZM166.057 165.571H171.415V170.929H166.057V165.571ZM171.415 165.571H176.772V170.929H171.415V165.571ZM171.415 170.929H176.772V176.286H171.415V170.929ZM166.057 170.929H171.415V176.286H166.057V170.929ZM166.057 176.286H171.415V181.643H166.057V176.286ZM171.415 176.286H176.772V181.643H171.415V176.286ZM166.057 181.643H171.415V187H166.057V181.643ZM160.7 176.286H166.057V181.643H160.7V176.286ZM155.343 176.286H160.7V181.643H155.343V176.286ZM149.986 176.286H155.343V181.643H149.986V176.286ZM144.629 176.286H149.986V181.643H144.629V176.286ZM149.986 181.643H155.343V187H149.986V181.643ZM155.343 181.643H160.7V187H155.343V181.643ZM160.7 181.643H166.057V187H160.7V181.643ZM171.415 149.5H176.772V154.857H171.415V149.5ZM166.057 149.5H171.415V154.857H166.057V149.5ZM166.057 144.143H171.415V149.5H166.057V144.143ZM160.7 144.143H166.057V149.5H160.7V144.143ZM155.343 144.143H160.7V149.5H155.343V144.143ZM149.986 144.143H155.343V149.5H149.986V144.143ZM149.986 149.5H155.343V154.857H149.986V149.5ZM155.343 149.5H160.7V154.857H155.343V149.5ZM160.7 149.5H166.057V154.857H160.7V149.5ZM182.129 133.429H192.843V144.143H182.129V133.429ZM182.129 149.5H192.843V187H182.129V149.5ZM219.671 176.286H225.028V181.643H219.671V176.286ZM219.671 181.643H225.028V187H219.671V181.643ZM214.314 181.643H219.671V187H214.314V181.643ZM214.314 176.286H219.671V181.643H214.314V176.286ZM208.956 181.643H214.314V187H208.956V181.643ZM208.956 176.286H214.314V181.643H208.956V176.286ZM203.599 176.286H208.956V181.643H203.599V176.286ZM203.599 170.929H208.956V176.286H203.599V170.929ZM203.599 165.571H208.956V170.929H203.599V165.571ZM203.599 160.214H208.956V165.571H203.599V160.214ZM203.599 154.857H208.956V160.214H203.599V154.857ZM203.599 149.5H208.956V154.857H203.599V149.5ZM208.956 165.571H214.314V170.929H208.956V165.571ZM208.956 170.929H214.314V176.286H208.956V170.929ZM208.956 160.214H214.314V165.571H208.956V160.214ZM208.956 154.857H214.314V160.214H208.956V154.857ZM208.956 133.429H214.314V138.786H208.956V133.429ZM208.956 138.786H214.314V144.143H208.956V138.786ZM208.956 144.143H214.314V149.5H208.956V144.143ZM208.956 149.5H214.314V154.857H208.956V149.5ZM203.599 144.143H208.956V149.5H203.599V144.143ZM198.242 149.5H203.599V154.857H198.242V149.5ZM214.314 149.5H219.671V154.857H214.314V149.5ZM219.671 149.5H225.028V154.857H219.671V149.5ZM203.599 138.786H208.956V144.143H203.599V138.786ZM198.242 154.857H203.599V160.214H198.242V154.857ZM214.314 154.857H219.671V160.214H214.314V154.857ZM219.671 154.857H225.028V160.214H219.671V154.857ZM241.085 144.143H246.443V149.5H241.085V144.143ZM235.728 144.143H241.085V149.5H235.728V144.143ZM235.728 149.5H241.085V154.857H235.728V149.5ZM241.085 149.5H246.443V154.857H241.085V149.5ZM246.443 144.143H251.8V149.5H246.443V144.143ZM251.8 144.143H257.157V149.5H251.8V144.143ZM257.157 144.143H262.514V149.5H257.157V144.143ZM257.157 149.5H262.514V154.857H257.157V149.5ZM251.8 149.5H257.157V154.857H251.8V149.5ZM262.514 149.5H267.871V154.857H262.514V149.5ZM262.514 154.857H267.871V160.214H262.514V154.857ZM262.514 176.286H267.871V181.643H262.514V176.286ZM257.157 176.286H262.514V181.643H257.157V176.286ZM257.157 154.857H262.514V160.214H257.157V154.857ZM251.8 176.286H257.157V181.643H251.8V176.286ZM257.157 181.643H262.514V187H257.157V181.643ZM251.8 181.643H257.157V187H251.8V181.643ZM246.443 181.643H251.8V187H246.443V181.643ZM241.085 181.643H246.443V187H241.085V181.643ZM235.728 181.643H241.085V187H235.728V181.643ZM235.728 176.286H241.085V181.643H235.728V176.286ZM241.085 176.286H246.443V181.643H241.085V176.286ZM235.728 170.929H241.085V176.286H235.728V170.929ZM230.371 176.286H235.728V181.643H230.371V176.286ZM230.371 170.929H235.728V176.286H230.371V170.929ZM230.371 165.571H235.728V170.929H230.371V165.571ZM230.371 160.214H235.728V165.571H230.371V160.214ZM230.371 154.857H235.728V160.214H230.371V154.857ZM230.371 149.5H235.728V154.857H230.371V149.5ZM235.728 154.857H241.085V160.214H235.728V154.857ZM235.728 160.214H241.085V165.571H235.728V160.214ZM235.728 165.571H241.085V170.929H235.728V165.571ZM246.443 176.286H251.8V181.643H246.443V176.286ZM246.443 149.5H251.8V154.857H246.443V149.5ZM257.157 160.214H262.514V165.571H257.157V160.214ZM262.514 160.214H267.871V165.571H262.514V160.214ZM241.085 165.571H246.443V170.929H241.085V165.571ZM246.443 165.571H251.8V170.929H246.443V165.571ZM251.8 165.571H257.157V170.929H251.8V165.571ZM257.157 165.571H262.514V170.929H257.157V165.571ZM262.514 165.571H267.871V170.929H262.514V165.571ZM251.8 160.214H257.157V165.571H251.8V160.214ZM246.443 160.214H251.8V165.571H246.443V160.214ZM241.085 160.214H246.443V165.571H241.085V160.214Z" fill="white"/>
</g>
<defs>
<clipPath id="clip0_98_7">
<rect width="386" height="214" fill="white"/>
</clipPath>
</defs>
</svg>
